<svg xmlns="http://www.w3.org/2000/svg" xmlns:xlink="http://www.w3.org/1999/xlink" xmlns:lucid="lucid" width="680" height="760"><g transform="translate(-260 -200)" lucid:page-tab-id="0_0"><path d="M280 226c0-3.3 2.7-6 6-6h628c3.3 0 6 2.7 6 6v188c0 3.3-2.7 6-6 6H286c-3.3 0-6-2.7-6-6z" stroke="#5e5e5e" stroke-width="3" fill="#fff"/><path d="M640 266c0-3.3 2.7-6 6-6h174.67c3.3 0 6 2.7 6 6v60c0 3.3-2.7 6-6 6H646c-3.3 0-6-2.7-6-6z" stroke="#5e5e5e" stroke-width="3" fill="#c7e8ac"/><use xlink:href="#a" transform="matrix(1,0,0,1,651.9999999999999,272) translate(28.1579861111111 29.7734375)"/><path d="M666.67 290c0-3.3 2.68-6 6-6h174.66c3.32 0 6 2.7 6 6v60c0 3.3-2.68 6-6 6H672.67c-3.32 0-6-2.7-6-6z" stroke="#5e5e5e" stroke-width="3" fill="#c7e8ac"/><use xlink:href="#a" transform="matrix(1,0,0,1,678.6666666666666,296) translate(28.1579861111111 29.7734375)"/><path d="M693.33 314c0-3.3 2.7-6 6-6H874c3.3 0 6 2.7 6 6v60c0 3.3-2.7 6-6 6H699.33c-3.3 0-6-2.7-6-6z" stroke="#5e5e5e" stroke-width="3" fill="#c7e8ac"/><use xlink:href="#a" transform="matrix(1,0,0,1,705.3333333333334,320) translate(28.1579861111111 29.7734375)"/><path d="M320 246c0-3.3 2.7-6 6-6h228c3.3 0 6 2.7 6 6v48c0 3.3-2.7 6-6 6H326c-3.3 0-6-2.7-6-6z" stroke="#000" stroke-opacity="0" stroke-width="3" fill="#fff" fill-opacity="0"/><use xlink:href="#b" transform="matrix(1,0,0,1,324.99999999999994,245) translate(0 33.828125)"/><path d="M280 486c0-3.3 2.7-6 6-6h628c3.3 0 6 2.7 6 6v188c0 3.3-2.7 6-6 6H286c-3.3 0-6-2.7-6-6z" stroke="#5e5e5e" stroke-width="3" fill="#fff"/><path d="M640 526c0-3.3 2.7-6 6-6h174.67c3.3 0 6 2.7 6 6v60c0 3.3-2.7 6-6 6H646c-3.3 0-6-2.7-6-6z" stroke="#5e5e5e" stroke-width="3" fill="#99d5ca"/><use xlink:href="#a" transform="matrix(1,0,0,1,651.9999999999999,532) translate(28.1579861111111 29.7734375)"/><path d="M666.67 550c0-3.3 2.68-6 6-6h174.66c3.32 0 6 2.7 6 6v60c0 3.3-2.68 6-6 6H672.67c-3.32 0-6-2.7-6-6z" stroke="#5e5e5e" stroke-width="3" fill="#99d5ca"/><use xlink:href="#a" transform="matrix(1,0,0,1,678.6666666666666,556) translate(28.1579861111111 29.7734375)"/><path d="M693.33 574c0-3.3 2.7-6 6-6H874c3.3 0 6 2.7 6 6v60c0 3.3-2.7 6-6 6H699.33c-3.3 0-6-2.7-6-6z" stroke="#5e5e5e" stroke-width="3" fill="#99d5ca"/><use xlink:href="#c" transform="matrix(1,0,0,1,705.3333333333334,580) translate(34.825737847222214 29.7734375)"/><path d="M320 506c0-3.3 2.7-6 6-6h228c3.3 0 6 2.7 6 6v48c0 3.3-2.7 6-6 6H326c-3.3 0-6-2.7-6-6z" stroke="#000" stroke-opacity="0" stroke-width="3" fill="#fff" fill-opacity="0"/><use xlink:href="#d" transform="matrix(1,0,0,1,325.00000000000006,505) translate(0 33.828125)"/><path d="M280 746c0-3.3 2.7-6 6-6h628c3.3 0 6 2.7 6 6v188c0 3.3-2.7 6-6 6H286c-3.3 0-6-2.7-6-6z" stroke="#5e5e5e" stroke-width="3" fill="#fff"/><path d="M640 786c0-3.3 2.7-6 6-6h174.67c3.3 0 6 2.7 6 6v60c0 3.3-2.7 6-6 6H646c-3.3 0-6-2.7-6-6z" stroke="#5e5e5e" stroke-width="3" fill="#b2d6ef"/><use xlink:href="#a" transform="matrix(1,0,0,1,651.9999999999999,792) translate(28.1579861111111 29.7734375)"/><path d="M666.67 810c0-3.3 2.68-6 6-6h174.66c3.32 0 6 2.7 6 6v60c0 3.3-2.68 6-6 6H672.67c-3.32 0-6-2.7-6-6z" stroke="#5e5e5e" stroke-width="3" fill="#b2d6ef"/><use xlink:href="#a" transform="matrix(1,0,0,1,678.6666666666666,816) translate(28.1579861111111 29.7734375)"/><path d="M693.33 834c0-3.3 2.7-6 6-6H874c3.3 0 6 2.7 6 6v60c0 3.3-2.7 6-6 6H699.33c-3.3 0-6-2.7-6-6z" stroke="#5e5e5e" stroke-width="3" fill="#b2d6ef"/><use xlink:href="#e" transform="matrix(1,0,0,1,705.3333333333334,840) translate(48.16124131944444 29.7734375)"/><path d="M323 765c0-3.3 2.7-6 6-6h228c3.3 0 6 2.7 6 6v48c0 3.3-2.7 6-6 6H329c-3.3 0-6-2.7-6-6z" stroke="#000" stroke-opacity="0" stroke-width="3" fill="#fff" fill-opacity="0"/><use xlink:href="#f" transform="matrix(1,0,0,1,328.00000000000006,764) translate(0 33.828125)"/><path d="M454 408c3.3 0 6 2.7 6 6v52c0 3.3 2.7 6 6 6h8c3.3 0 4 1.8 1.54 4l-31.08 28c-2.46 2.2-6.46 2.2-8.92 0l-31.08-28c-2.46-2.2-1.77-4 1.54-4h8c3.3 0 6-2.7 6-6v-52c0-3.3 2.7-6 6-6zM454 668c3.3 0 6 2.7 6 6v52c0 3.3 2.7 6 6 6h8c3.3 0 4 1.8 1.54 4l-31.08 28c-2.46 2.2-6.46 2.2-8.92 0l-31.08-28c-2.46-2.2-1.77-4 1.54-4h8c3.3 0 6-2.7 6-6v-52c0-3.3 2.7-6 6-6z" stroke="#5e5e5e" stroke-width="3" fill="#fff"/><path d="M300 290c0-3.3 2.7-6 6-6h468c3.3 0 6 2.7 6 6v84c0 3.3-2.7 6-6 6H306c-3.3 0-6-2.7-6-6z" stroke="#000" stroke-opacity="0" stroke-width="3" fill="#fff" fill-opacity="0"/><use xlink:href="#g" transform="matrix(1,0,0,1,305,289) translate(7.222222222222221 17.77777777777778)"/><use xlink:href="#h" transform="matrix(1,0,0,1,305,289) translate(22.22222222222222 17.77777777777778)"/><use xlink:href="#i" transform="matrix(1,0,0,1,305,289) translate(124.44444444444446 17.77777777777778)"/><use xlink:href="#j" transform="matrix(1,0,0,1,305,289) translate(221.9135802469136 17.77777777777778)"/><use xlink:href="#g" transform="matrix(1,0,0,1,305,289) translate(7.222222222222221 44.44444444444444)"/><use xlink:href="#k" transform="matrix(1,0,0,1,305,289) translate(22.22222222222222 44.44444444444444)"/><use xlink:href="#l" transform="matrix(1,0,0,1,305,289) translate(149.07407407407408 44.44444444444444)"/><use xlink:href="#j" transform="matrix(1,0,0,1,305,289) translate(229.25925925925924 44.44444444444444)"/><use xlink:href="#g" transform="matrix(1,0,0,1,305,289) translate(7.222222222222221 71.11111111111111)"/><use xlink:href="#m" transform="matrix(1,0,0,1,305,289) translate(22.22222222222222 71.11111111111111)"/><use xlink:href="#n" transform="matrix(1,0,0,1,305,289) translate(113.5185185185185 71.11111111111111)"/><use xlink:href="#o" transform="matrix(1,0,0,1,305,289) translate(159.07407407407408 71.11111111111111)"/><path d="M300 550c0-3.3 2.7-6 6-6h468c3.3 0 6 2.7 6 6v108c0 3.3-2.7 6-6 6H306c-3.3 0-6-2.7-6-6z" stroke="#000" stroke-opacity="0" stroke-width="3" fill="#fff" fill-opacity="0"/><g><use xlink:href="#g" transform="matrix(1,0,0,1,305,549) translate(7.222222222222221 17.77777777777778)"/><use xlink:href="#m" transform="matrix(1,0,0,1,305,549) translate(22.22222222222222 17.77777777777778)"/><use xlink:href="#n" transform="matrix(1,0,0,1,305,549) translate(113.5185185185185 17.77777777777778)"/><use xlink:href="#p" transform="matrix(1,0,0,1,305,549) translate(159.07407407407408 17.77777777777778)"/><use xlink:href="#q" transform="matrix(1,0,0,1,305,549) translate(196.11111111111111 17.77777777777778)"/><use xlink:href="#r" transform="matrix(1,0,0,1,305,549) translate(245.49382716049382 17.77777777777778)"/><use xlink:href="#g" transform="matrix(1,0,0,1,305,549) translate(7.222222222222221 44.44444444444444)"/><use xlink:href="#s" transform="matrix(1,0,0,1,305,549) translate(22.22222222222222 44.44444444444444)"/><use xlink:href="#t" transform="matrix(1,0,0,1,305,549) translate(70.30864197530865 44.44444444444444)"/><use xlink:href="#n" transform="matrix(1,0,0,1,305,549) translate(149.19753086419752 44.44444444444444)"/><use xlink:href="#p" transform="matrix(1,0,0,1,305,549) translate(194.75308641975306 44.44444444444444)"/><use xlink:href="#u" transform="matrix(1,0,0,1,305,549) translate(231.7901234567901 44.44444444444444)"/></g><path d="M300 810c0-3.3 2.7-6 6-6h448c3.3 0 6 2.7 6 6v88c0 3.3-2.7 6-6 6H306c-3.3 0-6-2.7-6-6z" stroke="#000" stroke-opacity="0" stroke-width="3" fill="#fff" fill-opacity="0"/><g><use xlink:href="#g" transform="matrix(1,0,0,1,305,809) translate(7.222222222222221 17.77777777777778)"/><use xlink:href="#v" transform="matrix(1,0,0,1,305,809) translate(22.22222222222222 17.77777777777778)"/><use xlink:href="#p" transform="matrix(1,0,0,1,305,809) translate(103.58024691358025 17.77777777777778)"/><use xlink:href="#q" transform="matrix(1,0,0,1,305,809) translate(140.6172839506173 17.77777777777778)"/><use xlink:href="#w" transform="matrix(1,0,0,1,305,809) translate(190 17.77777777777778)"/><use xlink:href="#g" transform="matrix(1,0,0,1,305,809) translate(7.222222222222221 44.44444444444444)"/><use xlink:href="#x" transform="matrix(1,0,0,1,305,809) translate(22.22222222222222 44.44444444444444)"/><use xlink:href="#y" transform="matrix(1,0,0,1,305,809) translate(118.33333333333331 44.44444444444444)"/><use xlink:href="#z" transform="matrix(1,0,0,1,305,809) translate(170.49382716049382 44.44444444444444)"/></g><defs><path fill="#333" d="M162 0v-1349h919v156H353v422h668v154H353v461h769V0H162" id="A"/><path fill="#333" d="M706-1102c241 0 344 136 343 381V0H868v-695c1-168-57-273-220-268-190 6-283 138-283 336V0H185c-3-360 6-732-6-1082h170c4 54 7 126 8 185h3c63-121 164-204 346-205" id="B"/><path fill="#333" d="M865-914c-3-187-2-380-2-570h180v1261c0 76 1 155 6 223H877c-8-49-9-116-10-174h-5C801-44 708 26 530 26c-135 0-234-46-297-139s-95-232-95-419c0-377 131-566 392-566 176 0 271 63 335 184zm-286-51c-222 0-255 197-255 427 0 229 31 425 253 425 237 0 286-195 286-441 0-238-52-411-284-411" id="C"/><path fill="#333" d="M698-1104c312 3 392 244 392 558 0 315-82 566-392 566-169 0-277-65-331-184h-5c8 188 2 394 4 589H185V-858c0-76-1-156-6-224h175c6 52 9 120 10 178h4c58-122 150-202 330-200zm-49 991c225 0 255-203 255-433 0-225-32-419-253-419-236 0-285 192-285 441 0 237 53 411 283 411" id="D"/><path fill="#333" d="M615-1102c343 0 484 203 482 560-1 347-147 562-488 562-336 0-475-219-479-562-4-349 156-560 485-560zm-8 989c240 0 301-180 301-429 0-245-55-427-290-427-236 0-299 181-299 427 0 243 61 429 288 429" id="E"/><path fill="#333" d="M745-142h380V0H143v-142h422v-798H246v-142h499v940zM545-1292v-192h200v192H545" id="F"/><path fill="#333" d="M682 16c-209 0-323-80-324-285v-671H190v-142h170l58-282h120v282h432v142H538v652c2 114 60 155 182 155 106 0 209-16 297-34v137C921-4 806 16 682 16" id="G"/><g id="a"><use transform="matrix(0.010850694444444444,0,0,0.010850694444444444,0,0)" xlink:href="#A"/><use transform="matrix(0.010850694444444444,0,0,0.010850694444444444,13.335503472222221,0)" xlink:href="#B"/><use transform="matrix(0.010850694444444444,0,0,0.010850694444444444,26.671006944444443,0)" xlink:href="#C"/><use transform="matrix(0.010850694444444444,0,0,0.010850694444444444,40.006510416666664,0)" xlink:href="#D"/><use transform="matrix(0.010850694444444444,0,0,0.010850694444444444,53.342013888888886,0)" xlink:href="#E"/><use transform="matrix(0.010850694444444444,0,0,0.010850694444444444,66.67751736111111,0)" xlink:href="#F"/><use transform="matrix(0.010850694444444444,0,0,0.010850694444444444,80.01302083333334,0)" xlink:href="#B"/><use transform="matrix(0.010850694444444444,0,0,0.010850694444444444,93.34852430555557,0)" xlink:href="#G"/></g><path fill="#333" d="M865-312c-44-312-23-686-28-1037h257V0H748L364-1010c44 304 24 668 28 1010H135v-1349h337" id="H"/><path fill="#333" d="M1113-274C1038-96 884 20 626 20c-352 0-526-209-526-566 0-358 185-556 530-556 358 0 496 251 499 615H395c5 180 68 319 245 319 102 0 186-45 208-129zM857-663c-6-177-128-307-315-247-94 30-141 121-145 247h460" id="I"/><path fill="#333" d="M711 13c-250 0-386-99-385-349l2-556H161v-190h181l88-282h176v282h385v190H606v530c-10 130 45 186 174 184 91-2 176-11 255-27v186C933-1 833 13 711 13" id="J"/><path fill="#333" d="M1028 0H784c-56-191-119-378-170-573C562-377 495-191 437 0H194L11-1082h228c32 239 67 472 95 714 4 40 7 80 7 119 53-195 119-378 177-568h193c56 190 120 371 169 568-1-79 11-158 21-226l91-607h226" id="K"/><path fill="#333" d="M616-1102c361 0 521 202 521 560 0 354-171 562-527 562C259 20 92-192 92-542c0-351 169-560 524-560zm-9 930c200-2 236-165 236-370 0-199-27-367-223-367-195 0-233 146-233 367 0 129 18 223 55 282s92 88 165 88" id="L"/><path fill="#333" d="M875-1102c70 0 148 7 206 17v237c-110-17-267-37-359 15-123 69-192 207-192 395V0H250c-10-367 32-789-52-1082h271c19 69 36 149 46 228h4c52-151 151-250 356-248" id="M"/><path fill="#333" d="M864 0L575-490l-121 84V0H173v-1484h281v850l386-448h302L762-660 1171 0H864" id="N"/><g id="b"><use transform="matrix(0.013020833333333332,0,0,0.013020833333333332,0,0)" xlink:href="#H"/><use transform="matrix(0.013020833333333332,0,0,0.013020833333333332,16.002604166666664,0)" xlink:href="#I"/><use transform="matrix(0.013020833333333332,0,0,0.013020833333333332,32.00520833333333,0)" xlink:href="#J"/><use transform="matrix(0.013020833333333332,0,0,0.013020833333333332,48.00781249999999,0)" xlink:href="#K"/><use transform="matrix(0.013020833333333332,0,0,0.013020833333333332,64.01041666666666,0)" xlink:href="#L"/><use transform="matrix(0.013020833333333332,0,0,0.013020833333333332,80.01302083333331,0)" xlink:href="#M"/><use transform="matrix(0.013020833333333332,0,0,0.013020833333333332,96.01562499999997,0)" xlink:href="#N"/></g><path fill="#333" d="M614-1226c-167 1-283 53-283 213 0 183 186 193 334 234 230 63 463 120 463 409 0 286-219 387-518 390C309 23 131-98 79-338l185-37c34 165 149 248 351 246 184-2 324-58 324-238 0-203-207-221-372-266-210-57-422-111-422-377 0-267 201-356 470-360 279-5 430 101 480 324l-188 33c-28-141-121-215-293-213" id="O"/><path fill="#333" d="M617-1102c355 0 481 238 477 599H322c5 222 84 388 301 388 144 0 244-59 284-166l158 45C1002-72 854 20 623 20c-342 0-490-220-490-568 0-346 151-554 484-554zm291 461c-18-192-90-328-289-328-194 0-287 128-295 328h584" id="P"/><path fill="#333" d="M839-1102c70 0 148 7 206 17v167c-112-18-268-36-363 15-129 69-208 203-208 395V0H294c-10-367 32-789-52-1082h171c21 75 41 161 48 250h5c67-152 152-270 373-270" id="Q"/><path fill="#333" d="M715 0H502L69-1082h202c94 253 197 500 285 758 19 57 36 126 52 183 96-335 234-626 350-941h201" id="R"/><path fill="#333" d="M631 20c-350 0-501-215-501-562 0-355 162-560 502-560 250 0 399 118 446 323l-192 14c-23-124-109-196-262-196-242 0-305 171-305 415 1 245 61 427 304 427 151 0 248-77 267-215l190 12C1039-107 883 20 631 20" id="S"/><g id="c"><use transform="matrix(0.010850694444444444,0,0,0.010850694444444444,0,0)" xlink:href="#O"/><use transform="matrix(0.010850694444444444,0,0,0.010850694444444444,13.335503472222221,0)" xlink:href="#P"/><use transform="matrix(0.010850694444444444,0,0,0.010850694444444444,26.671006944444443,0)" xlink:href="#Q"/><use transform="matrix(0.010850694444444444,0,0,0.010850694444444444,40.006510416666664,0)" xlink:href="#R"/><use transform="matrix(0.010850694444444444,0,0,0.010850694444444444,53.342013888888886,0)" xlink:href="#F"/><use transform="matrix(0.010850694444444444,0,0,0.010850694444444444,66.67751736111111,0)" xlink:href="#S"/><use transform="matrix(0.010850694444444444,0,0,0.010850694444444444,80.01302083333334,0)" xlink:href="#P"/></g><path fill="#333" d="M211 0v-1349h295v1121h616V0H211" id="T"/><path fill="#333" d="M1108-33c-3 314-178 467-492 467-243 0-400-94-447-291l281-33c17 79 82 141 174 141 176 0 212-155 205-347-2-40 5-80 0-115C773-85 665-12 501-12c-288 0-377-242-377-538 0-242 65-426 223-510 50-26 108-39 175-39 160 0 253 78 307 191h5c1-58 5-125 14-174h266c-12 335-3 703-6 1049zM811-384c25-82 27-259 1-342-30-99-77-180-190-180-172 0-205 171-205 356 0 116 18 202 54 258 48 76 129 107 221 70 62-25 96-86 119-162" id="U"/><path fill="#333" d="M794-190h353V0H118v-190h395v-702H223v-190h571v892zM513-1277v-207h281v207H513" id="V"/><path fill="#333" d="M1109-360C1066-122 902 20 624 20c-347 0-514-209-514-555 0-353 168-567 518-567 270 0 425 136 473 361l-283 14c-16-106-75-183-196-182-75 0-130 31-165 93s-52 152-52 270c0 249 74 374 221 374 120 0 188-82 201-201" id="W"/><g id="d"><use transform="matrix(0.013020833333333332,0,0,0.013020833333333332,0,0)" xlink:href="#T"/><use transform="matrix(0.013020833333333332,0,0,0.013020833333333332,16.002604166666664,0)" xlink:href="#L"/><use transform="matrix(0.013020833333333332,0,0,0.013020833333333332,32.00520833333333,0)" xlink:href="#U"/><use transform="matrix(0.013020833333333332,0,0,0.013020833333333332,48.00781249999999,0)" xlink:href="#V"/><use transform="matrix(0.013020833333333332,0,0,0.013020833333333332,64.01041666666666,0)" xlink:href="#W"/></g><path fill="#333" d="M285-1169c8 382 2 780 4 1169H129v-1349h237c86 239 188 461 253 720 69-258 169-481 255-720h225V0H937c2-390-5-788 6-1169-75 255-170 488-259 729H547c-90-240-185-475-262-729" id="X"/><path fill="#333" d="M736-142h380V0H134v-142h422v-1200H267v-142h469v1342" id="Y"/><g id="e"><use transform="matrix(0.010850694444444444,0,0,0.010850694444444444,0,0)" xlink:href="#X"/><use transform="matrix(0.010850694444444444,0,0,0.010850694444444444,13.335503472222221,0)" xlink:href="#E"/><use transform="matrix(0.010850694444444444,0,0,0.010850694444444444,26.671006944444443,0)" xlink:href="#C"/><use transform="matrix(0.010850694444444444,0,0,0.010850694444444444,40.006510416666664,0)" xlink:href="#P"/><use transform="matrix(0.010850694444444444,0,0,0.010850694444444444,53.342013888888886,0)" xlink:href="#Y"/></g><path fill="#333" d="M496-1349c439 0 656 222 653 664C1146-265 969 0 556 0H135v-1349h361zm36 1121c245-7 319-187 320-457 1-273-91-439-361-436h-61v893h102" id="Z"/><path fill="#333" d="M775-193C708-75 621 20 439 20 226 20 106-93 106-306c0-251 170-341 417-346l223-4c4-143-12-264-148-264-103 0-141 58-150 153l-293-14c37-219 194-321 455-321 263 0 418 130 417 390v392c1 84 5 161 89 160 21 0 42-2 62-6v152c-57 15-108 27-180 26-145 0-202-73-217-205h-6zm-256 17c168 0 234-139 227-325-166 4-347-25-347 173 0 94 33 152 120 152" id="aa"/><g id="f"><use transform="matrix(0.013020833333333332,0,0,0.013020833333333332,0,0)" xlink:href="#Z"/><use transform="matrix(0.013020833333333332,0,0,0.013020833333333332,16.002604166666664,0)" xlink:href="#aa"/><use transform="matrix(0.013020833333333332,0,0,0.013020833333333332,32.00520833333333,0)" xlink:href="#J"/><use transform="matrix(0.013020833333333332,0,0,0.013020833333333332,48.00781249999999,0)" xlink:href="#aa"/></g><path fill="#333" d="M62-168c30 0 50 19 50 48S92-70 62-70c-29 0-48-21-48-50s20-48 48-48" id="ab"/><use transform="matrix(0.06172839506172839,0,0,0.06172839506172839,0,0)" xlink:href="#ab" id="g"/><path fill="#333" d="M185-189c-5-48-123-54-124 2 14 75 158 14 163 119 3 78-121 87-175 55-17-10-28-26-33-46l33-7c5 56 141 63 141-1 0-78-155-14-162-118-5-82 145-84 179-34 5 7 8 16 11 25" id="ac"/><path fill="#333" d="M100-194c63 0 86 42 84 106H49c0 40 14 67 53 68 26 1 43-12 49-29l28 8c-11 28-37 45-77 45C44 4 14-33 15-96c1-61 26-98 85-98zm52 81c6-60-76-77-97-28-3 7-6 17-6 28h103" id="ad"/><path fill="#333" d="M114-163C36-179 61-72 57 0H25l-1-190h30c1 12-1 29 2 39 6-27 23-49 58-41v29" id="ae"/><path fill="#333" d="M24-231v-30h32v30H24zM24 0v-190h32V0H24" id="af"/><path fill="#333" d="M141-36C126-15 110 5 73 4 37 3 15-17 15-53c-1-64 63-63 125-63 3-35-9-54-41-54-24 1-41 7-42 31l-33-3c5-37 33-52 76-52 45 0 72 20 72 64v82c-1 20 7 32 28 27v20c-31 9-61-2-59-35zM48-53c0 20 12 33 32 33 41-3 63-29 60-74-43 2-92-5-92 41" id="ag"/><path fill="#333" d="M24 0v-261h32V0H24" id="ah"/><path fill="#333" d="M9 0v-24l116-142H16v-24h144v24L44-24h123V0H9" id="ai"/><path fill="#333" d="M135-143c-3-34-86-38-87 0 15 53 115 12 119 90S17 21 10-45l28-5c4 36 97 45 98 0-10-56-113-15-118-90-4-57 82-63 122-42 12 7 21 19 24 35" id="aj"/><g id="h"><use transform="matrix(0.06172839506172839,0,0,0.06172839506172839,0,0)" xlink:href="#ac"/><use transform="matrix(0.06172839506172839,0,0,0.06172839506172839,14.814814814814813,0)" xlink:href="#ad"/><use transform="matrix(0.06172839506172839,0,0,0.06172839506172839,27.160493827160494,0)" xlink:href="#ae"/><use transform="matrix(0.06172839506172839,0,0,0.06172839506172839,34.50617283950617,0)" xlink:href="#af"/><use transform="matrix(0.06172839506172839,0,0,0.06172839506172839,39.382716049382715,0)" xlink:href="#ag"/><use transform="matrix(0.06172839506172839,0,0,0.06172839506172839,51.72839506172839,0)" xlink:href="#ah"/><use transform="matrix(0.06172839506172839,0,0,0.06172839506172839,56.60493827160494,0)" xlink:href="#af"/><use transform="matrix(0.06172839506172839,0,0,0.06172839506172839,61.48148148148148,0)" xlink:href="#ai"/><use transform="matrix(0.06172839506172839,0,0,0.06172839506172839,72.5925925925926,0)" xlink:href="#ad"/><use transform="matrix(0.06172839506172839,0,0,0.06172839506172839,84.93827160493828,0)" xlink:href="#aj"/></g><path fill="#333" d="M115-194c55 1 70 41 70 98S169 2 115 4C84 4 66-9 55-30l1 105H24l-1-265h31l2 30c10-21 28-34 59-34zm-8 174c40 0 45-34 45-75s-6-73-45-74c-42 0-51 32-51 76 0 43 10 73 51 73" id="ak"/><path fill="#333" d="M100-194c62-1 85 37 85 99 1 63-27 99-86 99S16-35 15-95c0-66 28-99 85-99zM99-20c44 1 53-31 53-75 0-43-8-75-51-75s-53 32-53 75 10 74 51 75" id="al"/><path fill="#333" d="M117-194c89-4 53 116 60 194h-32v-121c0-31-8-49-39-48C34-167 62-67 57 0H25l-1-190h30c1 10-1 24 2 32 11-22 29-35 61-36" id="am"/><g id="i"><use transform="matrix(0.06172839506172839,0,0,0.06172839506172839,0,0)" xlink:href="#ae"/><use transform="matrix(0.06172839506172839,0,0,0.06172839506172839,7.345679012345679,0)" xlink:href="#ad"/><use transform="matrix(0.06172839506172839,0,0,0.06172839506172839,19.691358024691358,0)" xlink:href="#aj"/><use transform="matrix(0.06172839506172839,0,0,0.06172839506172839,30.80246913580247,0)" xlink:href="#ak"/><use transform="matrix(0.06172839506172839,0,0,0.06172839506172839,43.148148148148145,0)" xlink:href="#al"/><use transform="matrix(0.06172839506172839,0,0,0.06172839506172839,55.49382716049382,0)" xlink:href="#am"/><use transform="matrix(0.06172839506172839,0,0,0.06172839506172839,67.8395061728395,0)" xlink:href="#aj"/><use transform="matrix(0.06172839506172839,0,0,0.06172839506172839,78.95061728395062,0)" xlink:href="#ad"/></g><path fill="#333" d="M85-194c31 0 48 13 60 33l-1-100h32l1 261h-30c-2-10 0-23-3-31C134-8 116 4 85 4 32 4 16-35 15-94c0-66 23-100 70-100zm9 24c-40 0-46 34-46 75 0 40 6 74 45 74 42 0 51-32 51-76 0-42-9-74-50-73" id="an"/><path fill="#333" d="M59-47c-2 24 18 29 38 22v24C64 9 27 4 27-40v-127H5v-23h24l9-43h21v43h35v23H59v120" id="ao"/><g id="j"><use transform="matrix(0.06172839506172839,0,0,0.06172839506172839,0,0)" xlink:href="#an"/><use transform="matrix(0.06172839506172839,0,0,0.06172839506172839,12.345679012345679,0)" xlink:href="#ag"/><use transform="matrix(0.06172839506172839,0,0,0.06172839506172839,24.691358024691358,0)" xlink:href="#ao"/><use transform="matrix(0.06172839506172839,0,0,0.06172839506172839,30.864197530864196,0)" xlink:href="#ag"/></g><path fill="#333" d="M30-248c118-7 216 8 213 122C240-48 200 0 122 0H30v-248zM63-27c89 8 146-16 146-99s-60-101-146-95v194" id="ap"/><g id="k"><use transform="matrix(0.06172839506172839,0,0,0.06172839506172839,0,0)" xlink:href="#ap"/><use transform="matrix(0.06172839506172839,0,0,0.06172839506172839,15.987654320987653,0)" xlink:href="#ad"/><use transform="matrix(0.06172839506172839,0,0,0.06172839506172839,28.333333333333332,0)" xlink:href="#aj"/><use transform="matrix(0.06172839506172839,0,0,0.06172839506172839,39.44444444444444,0)" xlink:href="#ad"/><use transform="matrix(0.06172839506172839,0,0,0.06172839506172839,51.79012345679012,0)" xlink:href="#ae"/><use transform="matrix(0.06172839506172839,0,0,0.06172839506172839,59.1358024691358,0)" xlink:href="#af"/><use transform="matrix(0.06172839506172839,0,0,0.06172839506172839,64.01234567901234,0)" xlink:href="#ag"/><use transform="matrix(0.06172839506172839,0,0,0.06172839506172839,76.35802469135803,0)" xlink:href="#ah"/><use transform="matrix(0.06172839506172839,0,0,0.06172839506172839,81.23456790123457,0)" xlink:href="#af"/><use transform="matrix(0.06172839506172839,0,0,0.06172839506172839,86.11111111111111,0)" xlink:href="#ai"/><use transform="matrix(0.06172839506172839,0,0,0.06172839506172839,97.22222222222223,0)" xlink:href="#ad"/><use transform="matrix(0.06172839506172839,0,0,0.06172839506172839,109.56790123456791,0)" xlink:href="#aj"/></g><path fill="#333" d="M145-31C134-9 116 4 85 4 32 4 16-35 15-94c0-59 17-99 70-100 32-1 48 14 60 33 0-11-1-24 2-32h30l-1 268h-32zM93-21c41 0 51-33 51-76s-8-73-50-73c-40 0-46 35-46 75s5 74 45 74" id="aq"/><path fill="#333" d="M84 4C-5 8 30-112 23-190h32v120c0 31 7 50 39 49 72-2 45-101 50-169h31l1 190h-30c-1-10 1-25-2-33-11 22-28 36-60 37" id="ar"/><g id="l"><use transform="matrix(0.06172839506172839,0,0,0.06172839506172839,0,0)" xlink:href="#ae"/><use transform="matrix(0.06172839506172839,0,0,0.06172839506172839,7.345679012345679,0)" xlink:href="#ad"/><use transform="matrix(0.06172839506172839,0,0,0.06172839506172839,19.691358024691358,0)" xlink:href="#aq"/><use transform="matrix(0.06172839506172839,0,0,0.06172839506172839,32.03703703703704,0)" xlink:href="#ar"/><use transform="matrix(0.06172839506172839,0,0,0.06172839506172839,44.382716049382715,0)" xlink:href="#ad"/><use transform="matrix(0.06172839506172839,0,0,0.06172839506172839,56.72839506172839,0)" xlink:href="#aj"/><use transform="matrix(0.06172839506172839,0,0,0.06172839506172839,67.8395061728395,0)" xlink:href="#ao"/></g><path fill="#333" d="M33 0v-248h34V0H33" id="as"/><path fill="#333" d="M96-169c-40 0-48 33-48 73s9 75 48 75c24 0 41-14 43-38l32 2c-6 37-31 61-74 61-59 0-76-41-82-99-10-93 101-131 147-64 4 7 5 14 7 22l-32 3c-4-21-16-35-41-35" id="at"/><g id="m"><use transform="matrix(0.06172839506172839,0,0,0.06172839506172839,0,0)" xlink:href="#as"/><use transform="matrix(0.06172839506172839,0,0,0.06172839506172839,6.172839506172839,0)" xlink:href="#am"/><use transform="matrix(0.06172839506172839,0,0,0.06172839506172839,18.51851851851852,0)" xlink:href="#ao"/><use transform="matrix(0.06172839506172839,0,0,0.06172839506172839,24.691358024691358,0)" xlink:href="#ad"/><use transform="matrix(0.06172839506172839,0,0,0.06172839506172839,37.03703703703704,0)" xlink:href="#ae"/><use transform="matrix(0.06172839506172839,0,0,0.06172839506172839,44.382716049382715,0)" xlink:href="#ag"/><use transform="matrix(0.06172839506172839,0,0,0.06172839506172839,56.72839506172839,0)" xlink:href="#at"/><use transform="matrix(0.06172839506172839,0,0,0.06172839506172839,67.8395061728395,0)" xlink:href="#ao"/><use transform="matrix(0.06172839506172839,0,0,0.06172839506172839,74.01234567901234,0)" xlink:href="#aj"/></g><path fill="#333" d="M206 0h-36l-40-164L89 0H53L-1-190h32L70-26l43-164h34l41 164 42-164h31" id="au"/><path fill="#333" d="M106-169C34-169 62-67 57 0H25v-261h32l-1 103c12-21 28-36 61-36 89 0 53 116 60 194h-32v-121c2-32-8-49-39-48" id="av"/><g id="n"><use transform="matrix(0.06172839506172839,0,0,0.06172839506172839,0,0)" xlink:href="#au"/><use transform="matrix(0.06172839506172839,0,0,0.06172839506172839,15.987654320987653,0)" xlink:href="#af"/><use transform="matrix(0.06172839506172839,0,0,0.06172839506172839,20.864197530864196,0)" xlink:href="#ao"/><use transform="matrix(0.06172839506172839,0,0,0.06172839506172839,27.037037037037035,0)" xlink:href="#av"/></g><path fill="#333" d="M108 0H70L1-190h34L89-25l56-165h34" id="aw"/><g id="o"><use transform="matrix(0.06172839506172839,0,0,0.06172839506172839,0,0)" xlink:href="#aj"/><use transform="matrix(0.06172839506172839,0,0,0.06172839506172839,11.11111111111111,0)" xlink:href="#ad"/><use transform="matrix(0.06172839506172839,0,0,0.06172839506172839,23.45679012345679,0)" xlink:href="#ae"/><use transform="matrix(0.06172839506172839,0,0,0.06172839506172839,30.80246913580247,0)" xlink:href="#aw"/><use transform="matrix(0.06172839506172839,0,0,0.06172839506172839,41.91358024691358,0)" xlink:href="#af"/><use transform="matrix(0.06172839506172839,0,0,0.06172839506172839,46.79012345679013,0)" xlink:href="#at"/><use transform="matrix(0.06172839506172839,0,0,0.06172839506172839,57.90123456790124,0)" xlink:href="#ad"/><use transform="matrix(0.06172839506172839,0,0,0.06172839506172839,70.24691358024693,0)" xlink:href="#aj"/></g><g id="p"><use transform="matrix(0.06172839506172839,0,0,0.06172839506172839,0,0)" xlink:href="#ao"/><use transform="matrix(0.06172839506172839,0,0,0.06172839506172839,6.172839506172839,0)" xlink:href="#av"/><use transform="matrix(0.06172839506172839,0,0,0.06172839506172839,18.51851851851852,0)" xlink:href="#ad"/></g><g id="q"><use transform="matrix(0.06172839506172839,0,0,0.06172839506172839,0,0)" xlink:href="#an"/><use transform="matrix(0.06172839506172839,0,0,0.06172839506172839,12.345679012345679,0)" xlink:href="#ag"/><use transform="matrix(0.06172839506172839,0,0,0.06172839506172839,24.691358024691358,0)" xlink:href="#ao"/><use transform="matrix(0.06172839506172839,0,0,0.06172839506172839,30.864197530864196,0)" xlink:href="#ag"/></g><path fill="#333" d="M179-190L93 31C79 59 56 82 12 73V49c39 6 53-20 64-50L1-190h34L92-34l54-156h33" id="ax"/><g id="r"><use transform="matrix(0.06172839506172839,0,0,0.06172839506172839,0,0)" xlink:href="#ah"/><use transform="matrix(0.06172839506172839,0,0,0.06172839506172839,4.876543209876543,0)" xlink:href="#ag"/><use transform="matrix(0.06172839506172839,0,0,0.06172839506172839,17.22222222222222,0)" xlink:href="#ax"/><use transform="matrix(0.06172839506172839,0,0,0.06172839506172839,28.333333333333332,0)" xlink:href="#ad"/><use transform="matrix(0.06172839506172839,0,0,0.06172839506172839,40.67901234567901,0)" xlink:href="#ae"/></g><path fill="#333" d="M240 0l2-218c-23 76-54 145-80 218h-23L58-218 59 0H30v-248h44l77 211c21-75 51-140 76-211h43V0h-30" id="ay"/><g id="s"><use transform="matrix(0.06172839506172839,0,0,0.06172839506172839,0,0)" xlink:href="#ay"/><use transform="matrix(0.06172839506172839,0,0,0.06172839506172839,18.456790123456788,0)" xlink:href="#ag"/><use transform="matrix(0.06172839506172839,0,0,0.06172839506172839,30.80246913580247,0)" xlink:href="#ax"/></g><g id="t"><use transform="matrix(0.06172839506172839,0,0,0.06172839506172839,0,0)" xlink:href="#af"/><use transform="matrix(0.06172839506172839,0,0,0.06172839506172839,4.876543209876543,0)" xlink:href="#am"/><use transform="matrix(0.06172839506172839,0,0,0.06172839506172839,17.22222222222222,0)" xlink:href="#ao"/><use transform="matrix(0.06172839506172839,0,0,0.06172839506172839,23.39506172839506,0)" xlink:href="#ad"/><use transform="matrix(0.06172839506172839,0,0,0.06172839506172839,35.74074074074074,0)" xlink:href="#ae"/><use transform="matrix(0.06172839506172839,0,0,0.06172839506172839,43.08641975308642,0)" xlink:href="#ag"/><use transform="matrix(0.06172839506172839,0,0,0.06172839506172839,55.432098765432094,0)" xlink:href="#at"/><use transform="matrix(0.06172839506172839,0,0,0.06172839506172839,66.5432098765432,0)" xlink:href="#ao"/></g><g id="u"><use transform="matrix(0.06172839506172839,0,0,0.06172839506172839,0,0)" xlink:href="#al"/><use transform="matrix(0.06172839506172839,0,0,0.06172839506172839,12.345679012345679,0)" xlink:href="#ar"/><use transform="matrix(0.06172839506172839,0,0,0.06172839506172839,24.691358024691358,0)" xlink:href="#ao"/><use transform="matrix(0.06172839506172839,0,0,0.06172839506172839,30.864197530864196,0)" xlink:href="#aj"/><use transform="matrix(0.06172839506172839,0,0,0.06172839506172839,41.9753086419753,0)" xlink:href="#af"/><use transform="matrix(0.06172839506172839,0,0,0.06172839506172839,46.85185185185185,0)" xlink:href="#an"/><use transform="matrix(0.06172839506172839,0,0,0.06172839506172839,59.197530864197525,0)" xlink:href="#ad"/></g><path fill="#333" d="M101-234c-31-9-42 10-38 44h38v23H63V0H32v-167H5v-23h27c-7-52 17-82 69-68v24" id="az"/><g id="v"><use transform="matrix(0.06172839506172839,0,0,0.06172839506172839,0,0)" xlink:href="#ap"/><use transform="matrix(0.06172839506172839,0,0,0.06172839506172839,15.987654320987653,0)" xlink:href="#ad"/><use transform="matrix(0.06172839506172839,0,0,0.06172839506172839,28.333333333333332,0)" xlink:href="#az"/><use transform="matrix(0.06172839506172839,0,0,0.06172839506172839,34.50617283950617,0)" xlink:href="#af"/><use transform="matrix(0.06172839506172839,0,0,0.06172839506172839,39.382716049382715,0)" xlink:href="#am"/><use transform="matrix(0.06172839506172839,0,0,0.06172839506172839,51.72839506172839,0)" xlink:href="#ad"/><use transform="matrix(0.06172839506172839,0,0,0.06172839506172839,64.07407407407408,0)" xlink:href="#aj"/></g><path fill="#333" d="M210-169c-67 3-38 105-44 169h-31v-121c0-29-5-50-35-48C34-165 62-65 56 0H25l-1-190h30c1 10-1 24 2 32 10-44 99-50 107 0 11-21 27-35 58-36 85-2 47 119 55 194h-31v-121c0-29-5-49-35-48" id="aA"/><g id="w"><use transform="matrix(0.06172839506172839,0,0,0.06172839506172839,0,0)" xlink:href="#aA"/><use transform="matrix(0.06172839506172839,0,0,0.06172839506172839,18.456790123456788,0)" xlink:href="#al"/><use transform="matrix(0.06172839506172839,0,0,0.06172839506172839,30.80246913580247,0)" xlink:href="#an"/><use transform="matrix(0.06172839506172839,0,0,0.06172839506172839,43.148148148148145,0)" xlink:href="#ad"/><use transform="matrix(0.06172839506172839,0,0,0.06172839506172839,55.49382716049382,0)" xlink:href="#ah"/></g><path fill="#333" d="M30-248c87 1 191-15 191 75 0 78-77 80-158 76V0H30v-248zm33 125c57 0 124 11 124-50 0-59-68-47-124-48v98" id="aB"/><g id="x"><use transform="matrix(0.06172839506172839,0,0,0.06172839506172839,0,0)" xlink:href="#aB"/><use transform="matrix(0.06172839506172839,0,0,0.06172839506172839,14.814814814814813,0)" xlink:href="#ad"/><use transform="matrix(0.06172839506172839,0,0,0.06172839506172839,27.160493827160494,0)" xlink:href="#ae"/><use transform="matrix(0.06172839506172839,0,0,0.06172839506172839,34.50617283950617,0)" xlink:href="#az"/><use transform="matrix(0.06172839506172839,0,0,0.06172839506172839,40.67901234567901,0)" xlink:href="#al"/><use transform="matrix(0.06172839506172839,0,0,0.06172839506172839,53.02469135802469,0)" xlink:href="#ae"/><use transform="matrix(0.06172839506172839,0,0,0.06172839506172839,60.37037037037037,0)" xlink:href="#aA"/><use transform="matrix(0.06172839506172839,0,0,0.06172839506172839,78.82716049382715,0)" xlink:href="#aj"/></g><path fill="#333" d="M30 0v-248h33v221h125V0H30" id="aC"/><g id="y"><use transform="matrix(0.06172839506172839,0,0,0.06172839506172839,0,0)" xlink:href="#ap"/><use transform="matrix(0.06172839506172839,0,0,0.06172839506172839,15.987654320987653,0)" xlink:href="#ay"/><use transform="matrix(0.06172839506172839,0,0,0.06172839506172839,34.44444444444444,0)" xlink:href="#aC"/></g><g id="z"><use transform="matrix(0.06172839506172839,0,0,0.06172839506172839,0,0)" xlink:href="#al"/><use transform="matrix(0.06172839506172839,0,0,0.06172839506172839,12.345679012345679,0)" xlink:href="#ak"/><use transform="matrix(0.06172839506172839,0,0,0.06172839506172839,24.691358024691358,0)" xlink:href="#ad"/><use transform="matrix(0.06172839506172839,0,0,0.06172839506172839,37.03703703703704,0)" xlink:href="#ae"/><use transform="matrix(0.06172839506172839,0,0,0.06172839506172839,44.382716049382715,0)" xlink:href="#ag"/><use transform="matrix(0.06172839506172839,0,0,0.06172839506172839,56.72839506172839,0)" xlink:href="#ao"/><use transform="matrix(0.06172839506172839,0,0,0.06172839506172839,62.901234567901234,0)" xlink:href="#af"/><use transform="matrix(0.06172839506172839,0,0,0.06172839506172839,67.77777777777777,0)" xlink:href="#al"/><use transform="matrix(0.06172839506172839,0,0,0.06172839506172839,80.12345679012346,0)" xlink:href="#am"/><use transform="matrix(0.06172839506172839,0,0,0.06172839506172839,92.46913580246914,0)" xlink:href="#aj"/></g></defs></g></svg>