<svg xmlns="http://www.w3.org/2000/svg" xmlns:xlink="http://www.w3.org/1999/xlink" xmlns:lucid="lucid" width="720" height="680"><g transform="translate(-600 -200)" lucid:page-tab-id="0_0"><path d="M620 226c0-3.3 2.7-6 6-6h668c3.3 0 6 2.7 6 6v188c0 3.3-2.7 6-6 6H626c-3.3 0-6-2.7-6-6z" stroke="#5e5e5e" stroke-width="3" fill="#fff"/><path d="M1020 266c0-3.3 2.7-6 6-6h174.67c3.3 0 6 2.7 6 6v60c0 3.3-2.7 6-6 6H1026c-3.3 0-6-2.7-6-6z" stroke="#5e5e5e" stroke-width="3" fill="#c7e8ac"/><use xlink:href="#a" transform="matrix(1,0,0,1,1032,272) translate(28.1579861111111 29.7734375)"/><path d="M1046.67 290c0-3.3 2.68-6 6-6h174.66c3.32 0 6 2.7 6 6v60c0 3.3-2.68 6-6 6h-174.66c-3.32 0-6-2.7-6-6z" stroke="#5e5e5e" stroke-width="3" fill="#c7e8ac"/><use xlink:href="#a" transform="matrix(1,0,0,1,1058.6666666666667,296) translate(28.1579861111111 29.7734375)"/><path d="M1073.33 314c0-3.3 2.7-6 6-6H1254c3.3 0 6 2.7 6 6v60c0 3.3-2.7 6-6 6h-174.67c-3.3 0-6-2.7-6-6z" stroke="#5e5e5e" stroke-width="3" fill="#c7e8ac"/><use xlink:href="#a" transform="matrix(1,0,0,1,1085.3333333333337,320) translate(28.1579861111111 29.7734375)"/><path d="M640 246c0-3.3 2.7-6 6-6h228c3.3 0 6 2.7 6 6v48c0 3.3-2.7 6-6 6H646c-3.3 0-6-2.7-6-6z" stroke="#000" stroke-opacity="0" stroke-width="3" fill="#fff" fill-opacity="0"/><use xlink:href="#b" transform="matrix(1,0,0,1,645,245) translate(0 33.828125)"/><path d="M620 446c0-3.3 2.7-6 6-6h668c3.3 0 6 2.7 6 6v188c0 3.3-2.7 6-6 6H626c-3.3 0-6-2.7-6-6z" stroke="#5e5e5e" stroke-width="3" fill="#fff"/><path d="M1020 486c0-3.3 2.7-6 6-6h174.67c3.3 0 6 2.7 6 6v60c0 3.3-2.7 6-6 6H1026c-3.3 0-6-2.7-6-6z" stroke="#5e5e5e" stroke-width="3" fill="#99d5ca"/><use xlink:href="#c" transform="matrix(1,0,0,1,1032,492) translate(28.1579861111111 29.7734375)"/><path d="M1046.67 510c0-3.3 2.68-6 6-6h174.66c3.32 0 6 2.7 6 6v60c0 3.3-2.68 6-6 6h-174.66c-3.32 0-6-2.7-6-6z" stroke="#5e5e5e" stroke-width="3" fill="#99d5ca"/><use xlink:href="#c" transform="matrix(1,0,0,1,1058.6666666666667,516) translate(28.1579861111111 29.7734375)"/><path d="M1073.33 534c0-3.3 2.7-6 6-6H1254c3.3 0 6 2.7 6 6v60c0 3.3-2.7 6-6 6h-174.67c-3.3 0-6-2.7-6-6z" stroke="#5e5e5e" stroke-width="3" fill="#99d5ca"/><use xlink:href="#d" transform="matrix(1,0,0,1,1085.3333333333337,540) translate(34.825737847222214 29.7734375)"/><path d="M640 466c0-3.3 2.7-6 6-6h228c3.3 0 6 2.7 6 6v48c0 3.3-2.7 6-6 6H646c-3.3 0-6-2.7-6-6z" stroke="#000" stroke-opacity="0" stroke-width="3" fill="#fff" fill-opacity="0"/><use xlink:href="#e" transform="matrix(1,0,0,1,645,465) translate(0 33.828125)"/><path d="M620 666c0-3.3 2.7-6 6-6h668c3.3 0 6 2.7 6 6v188c0 3.3-2.7 6-6 6H626c-3.3 0-6-2.7-6-6z" stroke="#5e5e5e" stroke-width="3" fill="#fff"/><path d="M1020 706c0-3.3 2.7-6 6-6h174.67c3.3 0 6 2.7 6 6v60c0 3.3-2.7 6-6 6H1026c-3.3 0-6-2.7-6-6z" stroke="#5e5e5e" stroke-width="3" fill="#b2d6ef"/><use xlink:href="#a" transform="matrix(1,0,0,1,1032,712) translate(28.1579861111111 29.7734375)"/><path d="M1046.67 730c0-3.3 2.68-6 6-6h174.66c3.32 0 6 2.7 6 6v60c0 3.3-2.68 6-6 6h-174.66c-3.32 0-6-2.7-6-6z" stroke="#5e5e5e" stroke-width="3" fill="#b2d6ef"/><use xlink:href="#a" transform="matrix(1,0,0,1,1058.6666666666667,736) translate(28.1579861111111 29.7734375)"/><path d="M1073.33 754c0-3.3 2.7-6 6-6H1254c3.3 0 6 2.7 6 6v60c0 3.3-2.7 6-6 6h-174.67c-3.3 0-6-2.7-6-6z" stroke="#5e5e5e" stroke-width="3" fill="#b2d6ef"/><use xlink:href="#f" transform="matrix(1,0,0,1,1085.3333333333337,760) translate(48.16124131944444 29.7734375)"/><path d="M640 686c0-3.3 2.7-6 6-6h228c3.3 0 6 2.7 6 6v48c0 3.3-2.7 6-6 6H646c-3.3 0-6-2.7-6-6z" stroke="#000" stroke-opacity="0" stroke-width="3" fill="#fff" fill-opacity="0"/><use xlink:href="#g" transform="matrix(1,0,0,1,645,685) translate(0 33.828125)"/><path d="M640 290c0-3.3 2.7-6 6-6h468c3.3 0 6 2.7 6 6v131.33c0 3.32-2.7 6-6 6H646c-3.3 0-6-2.68-6-6z" stroke="#000" stroke-opacity="0" stroke-width="3" fill="#fff" fill-opacity="0"/><use xlink:href="#h" transform="matrix(1,0,0,1,645,289) translate(0 17.77777777777778)"/><use xlink:href="#i" transform="matrix(1,0,0,1,645,289) translate(126.85185185185186 17.77777777777778)"/><use xlink:href="#j" transform="matrix(1,0,0,1,645,289) translate(207.03703703703704 17.77777777777778)"/><use xlink:href="#k" transform="matrix(1,0,0,1,645,289) translate(262.5925925925926 17.77777777777778)"/><use xlink:href="#l" transform="matrix(1,0,0,1,645,289) translate(0 44.44444444444444)"/><use xlink:href="#m" transform="matrix(1,0,0,1,645,289) translate(45.55555555555556 44.44444444444444)"/><use xlink:href="#n" transform="matrix(1,0,0,1,645,289) translate(82.5925925925926 44.44444444444444)"/><use xlink:href="#o" transform="matrix(1,0,0,1,645,289) translate(161.48148148148147 44.44444444444444)"/><use xlink:href="#p" transform="matrix(1,0,0,1,645,289) translate(215.67901234567898 44.44444444444444)"/><use xlink:href="#q" transform="matrix(1,0,0,1,645,289) translate(258.88888888888886 44.44444444444444)"/><use xlink:href="#r" transform="matrix(1,0,0,1,645,289) translate(0 71.11111111111111)"/><use xlink:href="#s" transform="matrix(1,0,0,1,645,289) translate(97.46913580246914 71.11111111111111)"/><path d="M640 510c0-3.3 2.7-6 6-6h468c3.3 0 6 2.7 6 6v108c0 3.3-2.7 6-6 6H646c-3.3 0-6-2.7-6-6z" stroke="#000" stroke-opacity="0" stroke-width="3" fill="#fff" fill-opacity="0"/><g><use xlink:href="#t" transform="matrix(1,0,0,1,645,509) translate(0 17.77777777777778)"/><use xlink:href="#u" transform="matrix(1,0,0,1,645,509) translate(91.11111111111111 17.77777777777778)"/><use xlink:href="#v" transform="matrix(1,0,0,1,645,509) translate(181.1111111111111 17.77777777777778)"/><use xlink:href="#m" transform="matrix(1,0,0,1,645,509) translate(226.66666666666663 17.77777777777778)"/><use xlink:href="#w" transform="matrix(1,0,0,1,645,509) translate(263.7037037037037 17.77777777777778)"/><use xlink:href="#x" transform="matrix(1,0,0,1,645,509) translate(0 44.44444444444444)"/><use xlink:href="#y" transform="matrix(1,0,0,1,645,509) translate(65.30864197530865 44.44444444444444)"/><use xlink:href="#z" transform="matrix(1,0,0,1,645,509) translate(102.34567901234568 44.44444444444444)"/><use xlink:href="#A" transform="matrix(1,0,0,1,645,509) translate(150.4320987654321 44.44444444444444)"/><use xlink:href="#B" transform="matrix(1,0,0,1,645,509) translate(197.28395061728395 44.44444444444444)"/><use xlink:href="#l" transform="matrix(1,0,0,1,645,509) translate(0 71.11111111111111)"/><use xlink:href="#m" transform="matrix(1,0,0,1,645,509) translate(45.55555555555556 71.11111111111111)"/><use xlink:href="#C" transform="matrix(1,0,0,1,645,509) translate(82.5925925925926 71.11111111111111)"/><use xlink:href="#D" transform="matrix(1,0,0,1,645,509) translate(160.30864197530863 71.11111111111111)"/></g><path d="M640 730c0-3.3 2.7-6 6-6h448c3.3 0 6 2.7 6 6v88c0 3.3-2.7 6-6 6H646c-3.3 0-6-2.7-6-6z" stroke="#000" stroke-opacity="0" stroke-width="3" fill="#fff" fill-opacity="0"/><g><use xlink:href="#E" transform="matrix(1,0,0,1,645,729) translate(0 17.77777777777778)"/><use xlink:href="#m" transform="matrix(1,0,0,1,645,729) translate(81.35802469135803 17.77777777777778)"/><use xlink:href="#F" transform="matrix(1,0,0,1,645,729) translate(118.39506172839506 17.77777777777778)"/><use xlink:href="#G" transform="matrix(1,0,0,1,645,729) translate(215.92592592592592 17.77777777777778)"/><use xlink:href="#H" transform="matrix(1,0,0,1,645,729) translate(299.8148148148148 17.77777777777778)"/><use xlink:href="#I" transform="matrix(1,0,0,1,645,729) translate(0 44.44444444444444)"/><use xlink:href="#J" transform="matrix(1,0,0,1,645,729) translate(90 44.44444444444444)"/><use xlink:href="#K" transform="matrix(1,0,0,1,645,729) translate(162.77777777777777 44.44444444444444)"/><use xlink:href="#L" transform="matrix(1,0,0,1,645,729) translate(194.8148148148148 44.44444444444444)"/><use xlink:href="#M" transform="matrix(1,0,0,1,645,729) translate(303.2716049382716 44.44444444444444)"/><use xlink:href="#N" transform="matrix(1,0,0,1,645,729) translate(0 71.11111111111111)"/><use xlink:href="#O" transform="matrix(1,0,0,1,645,729) translate(37.03703703703704 71.11111111111111)"/></g><g><path d="M1180.67 400c3.3 0 6 2.7 6 6v12c0 3.3 2.68 6 6 6h8c3.3 0 4 1.8 1.54 4l-31.07 28c-2.47 2.2-6.46 2.2-8.92 0l-31.07-28c-2.47-2.2-1.78-4 1.54-4h8c3.3 0 6-2.7 6-6v-12c0-3.3 2.68-6 6-6z" stroke="#5e5e5e" stroke-width="3" fill="#fff"/></g><g><path d="M1180.67 620c3.3 0 6 2.7 6 6v12c0 3.3 2.68 6 6 6h8c3.3 0 4 1.8 1.54 4l-31.07 28c-2.47 2.2-6.46 2.2-8.92 0l-31.07-28c-2.47-2.2-1.78-4 1.54-4h8c3.3 0 6-2.7 6-6v-12c0-3.3 2.68-6 6-6z" stroke="#5e5e5e" stroke-width="3" fill="#fff"/></g><defs><path fill="#333" d="M162 0v-1349h919v156H353v422h668v154H353v461h769V0H162" id="P"/><path fill="#333" d="M706-1102c241 0 344 136 343 381V0H868v-695c1-168-57-273-220-268-190 6-283 138-283 336V0H185c-3-360 6-732-6-1082h170c4 54 7 126 8 185h3c63-121 164-204 346-205" id="Q"/><path fill="#333" d="M865-914c-3-187-2-380-2-570h180v1261c0 76 1 155 6 223H877c-8-49-9-116-10-174h-5C801-44 708 26 530 26c-135 0-234-46-297-139s-95-232-95-419c0-377 131-566 392-566 176 0 271 63 335 184zm-286-51c-222 0-255 197-255 427 0 229 31 425 253 425 237 0 286-195 286-441 0-238-52-411-284-411" id="R"/><path fill="#333" d="M698-1104c312 3 392 244 392 558 0 315-82 566-392 566-169 0-277-65-331-184h-5c8 188 2 394 4 589H185V-858c0-76-1-156-6-224h175c6 52 9 120 10 178h4c58-122 150-202 330-200zm-49 991c225 0 255-203 255-433 0-225-32-419-253-419-236 0-285 192-285 441 0 237 53 411 283 411" id="S"/><path fill="#333" d="M615-1102c343 0 484 203 482 560-1 347-147 562-488 562-336 0-475-219-479-562-4-349 156-560 485-560zm-8 989c240 0 301-180 301-429 0-245-55-427-290-427-236 0-299 181-299 427 0 243 61 429 288 429" id="T"/><path fill="#333" d="M745-142h380V0H143v-142h422v-798H246v-142h499v940zM545-1292v-192h200v192H545" id="U"/><path fill="#333" d="M682 16c-209 0-323-80-324-285v-671H190v-142h170l58-282h120v282h432v142H538v652c2 114 60 155 182 155 106 0 209-16 297-34v137C921-4 806 16 682 16" id="V"/><g id="a"><use transform="matrix(0.010850694444444444,0,0,0.010850694444444444,0,0)" xlink:href="#P"/><use transform="matrix(0.010850694444444444,0,0,0.010850694444444444,13.335503472222221,0)" xlink:href="#Q"/><use transform="matrix(0.010850694444444444,0,0,0.010850694444444444,26.671006944444443,0)" xlink:href="#R"/><use transform="matrix(0.010850694444444444,0,0,0.010850694444444444,40.006510416666664,0)" xlink:href="#S"/><use transform="matrix(0.010850694444444444,0,0,0.010850694444444444,53.342013888888886,0)" xlink:href="#T"/><use transform="matrix(0.010850694444444444,0,0,0.010850694444444444,66.67751736111111,0)" xlink:href="#U"/><use transform="matrix(0.010850694444444444,0,0,0.010850694444444444,80.01302083333334,0)" xlink:href="#Q"/><use transform="matrix(0.010850694444444444,0,0,0.010850694444444444,93.34852430555557,0)" xlink:href="#V"/></g><path fill="#333" d="M762-1121V0H467v-1121H61v-228h1107v228H762" id="W"/><path fill="#333" d="M875-1102c70 0 148 7 206 17v237c-110-17-267-37-359 15-123 69-192 207-192 395V0H250c-10-367 32-789-52-1082h271c19 69 36 149 46 228h4c52-151 151-250 356-248" id="X"/><path fill="#333" d="M775-193C708-75 621 20 439 20 226 20 106-93 106-306c0-251 170-341 417-346l223-4c4-143-12-264-148-264-103 0-141 58-150 153l-293-14c37-219 194-321 455-321 263 0 418 130 417 390v392c1 84 5 161 89 160 21 0 42-2 62-6v152c-57 15-108 27-180 26-145 0-202-73-217-205h-6zm-256 17c168 0 234-139 227-325-166 4-347-25-347 173 0 94 33 152 120 152" id="Y"/><path fill="#333" d="M768-1103c247 0 336 167 336 416V0H824v-619c-3-164-24-273-171-273-164 0-229 142-229 312V0H143c-4-359 9-736-8-1082h268c7 63 12 146 13 215h4c67-145 160-236 348-236" id="Z"/><path fill="#333" d="M622-916c-112 2-200 14-200 111 0 90 89 101 168 121 234 58 514 77 514 368C1104-4 751 54 434 5 267-21 161-112 121-270l247-37c24 111 113 145 252 141 114-3 226-12 226-124 0-101-103-113-192-134-225-54-490-76-490-351 0-247 201-328 458-328 245 0 413 88 457 292l-249 26c-16-98-92-133-208-131" id="aa"/><path fill="#333" d="M427-171c3 195 2 397 2 596H148V-846c1-83-4-168-8-236h272c10 49 14 118 15 176h4c59-114 151-197 316-197 291 0 385 259 385 560 0 243-65 433-220 521-50 28-109 42-176 42-162-2-253-78-309-191zm69-661c-91 113-92 463-1 586 46 62 145 101 225 54 96-57 118-191 119-351 0-123-18-215-53-276-46-82-128-115-220-74-25 12-48 33-70 61" id="ab"/><path fill="#333" d="M616-1102c361 0 521 202 521 560 0 354-171 562-527 562C259 20 92-192 92-542c0-351 169-560 524-560zm-9 930c200-2 236-165 236-370 0-199-27-367-223-367-195 0-233 146-233 367 0 129 18 223 55 282s92 88 165 88" id="ac"/><path fill="#333" d="M711 13c-250 0-386-99-385-349l2-556H161v-190h181l88-282h176v282h385v190H606v530c-10 130 45 186 174 184 91-2 176-11 255-27v186C933-1 833 13 711 13" id="ad"/><g id="b"><use transform="matrix(0.013020833333333332,0,0,0.013020833333333332,0,0)" xlink:href="#W"/><use transform="matrix(0.013020833333333332,0,0,0.013020833333333332,16.002604166666664,0)" xlink:href="#X"/><use transform="matrix(0.013020833333333332,0,0,0.013020833333333332,32.00520833333333,0)" xlink:href="#Y"/><use transform="matrix(0.013020833333333332,0,0,0.013020833333333332,48.00781249999999,0)" xlink:href="#Z"/><use transform="matrix(0.013020833333333332,0,0,0.013020833333333332,64.01041666666666,0)" xlink:href="#aa"/><use transform="matrix(0.013020833333333332,0,0,0.013020833333333332,80.01302083333331,0)" xlink:href="#ab"/><use transform="matrix(0.013020833333333332,0,0,0.013020833333333332,96.01562499999997,0)" xlink:href="#ac"/><use transform="matrix(0.013020833333333332,0,0,0.013020833333333332,112.01822916666663,0)" xlink:href="#X"/><use transform="matrix(0.013020833333333332,0,0,0.013020833333333332,128.0208333333333,0)" xlink:href="#ad"/></g><g id="c"><use transform="matrix(0.010850694444444444,0,0,0.010850694444444444,0,0)" xlink:href="#P"/><use transform="matrix(0.010850694444444444,0,0,0.010850694444444444,13.335503472222221,0)" xlink:href="#Q"/><use transform="matrix(0.010850694444444444,0,0,0.010850694444444444,26.671006944444443,0)" xlink:href="#R"/><use transform="matrix(0.010850694444444444,0,0,0.010850694444444444,40.006510416666664,0)" xlink:href="#S"/><use transform="matrix(0.010850694444444444,0,0,0.010850694444444444,53.342013888888886,0)" xlink:href="#T"/><use transform="matrix(0.010850694444444444,0,0,0.010850694444444444,66.67751736111111,0)" xlink:href="#U"/><use transform="matrix(0.010850694444444444,0,0,0.010850694444444444,80.01302083333334,0)" xlink:href="#Q"/><use transform="matrix(0.010850694444444444,0,0,0.010850694444444444,93.34852430555557,0)" xlink:href="#V"/></g><path fill="#333" d="M614-1226c-167 1-283 53-283 213 0 183 186 193 334 234 230 63 463 120 463 409 0 286-219 387-518 390C309 23 131-98 79-338l185-37c34 165 149 248 351 246 184-2 324-58 324-238 0-203-207-221-372-266-210-57-422-111-422-377 0-267 201-356 470-360 279-5 430 101 480 324l-188 33c-28-141-121-215-293-213" id="ae"/><path fill="#333" d="M617-1102c355 0 481 238 477 599H322c5 222 84 388 301 388 144 0 244-59 284-166l158 45C1002-72 854 20 623 20c-342 0-490-220-490-568 0-346 151-554 484-554zm291 461c-18-192-90-328-289-328-194 0-287 128-295 328h584" id="af"/><path fill="#333" d="M839-1102c70 0 148 7 206 17v167c-112-18-268-36-363 15-129 69-208 203-208 395V0H294c-10-367 32-789-52-1082h171c21 75 41 161 48 250h5c67-152 152-270 373-270" id="ag"/><path fill="#333" d="M715 0H502L69-1082h202c94 253 197 500 285 758 19 57 36 126 52 183 96-335 234-626 350-941h201" id="ah"/><path fill="#333" d="M631 20c-350 0-501-215-501-562 0-355 162-560 502-560 250 0 399 118 446 323l-192 14c-23-124-109-196-262-196-242 0-305 171-305 415 1 245 61 427 304 427 151 0 248-77 267-215l190 12C1039-107 883 20 631 20" id="ai"/><g id="d"><use transform="matrix(0.010850694444444444,0,0,0.010850694444444444,0,0)" xlink:href="#ae"/><use transform="matrix(0.010850694444444444,0,0,0.010850694444444444,13.335503472222221,0)" xlink:href="#af"/><use transform="matrix(0.010850694444444444,0,0,0.010850694444444444,26.671006944444443,0)" xlink:href="#ag"/><use transform="matrix(0.010850694444444444,0,0,0.010850694444444444,40.006510416666664,0)" xlink:href="#ah"/><use transform="matrix(0.010850694444444444,0,0,0.010850694444444444,53.342013888888886,0)" xlink:href="#U"/><use transform="matrix(0.010850694444444444,0,0,0.010850694444444444,66.67751736111111,0)" xlink:href="#ai"/><use transform="matrix(0.010850694444444444,0,0,0.010850694444444444,80.01302083333334,0)" xlink:href="#af"/></g><path fill="#333" d="M496-1349c439 0 656 222 653 664C1146-265 969 0 556 0H135v-1349h361zm36 1121c245-7 319-187 320-457 1-273-91-439-361-436h-61v893h102" id="aj"/><path fill="#333" d="M934-1102c199 0 220 177 220 381V0H926c-2-260 10-533-4-785-4-72-14-138-83-138-34 0-61 27-81 81s-29 134-29 241V0H501c-2-260 9-533-5-785-4-72-13-138-82-138-46 0-65 47-80 93-21 67-30 155-30 248V0H75c-3-360 6-732-6-1082h209c6 50 3 123 8 175 36-100 83-195 216-195 135 0 166 79 196 196 42-105 93-196 236-196" id="ak"/><path fill="#333" d="M794-190h353V0H118v-190h395v-702H223v-190h571v892zM513-1277v-207h281v207H513" id="al"/><g id="e"><use transform="matrix(0.013020833333333332,0,0,0.013020833333333332,0,0)" xlink:href="#aj"/><use transform="matrix(0.013020833333333332,0,0,0.013020833333333332,16.002604166666664,0)" xlink:href="#ac"/><use transform="matrix(0.013020833333333332,0,0,0.013020833333333332,32.00520833333333,0)" xlink:href="#ak"/><use transform="matrix(0.013020833333333332,0,0,0.013020833333333332,48.00781249999999,0)" xlink:href="#Y"/><use transform="matrix(0.013020833333333332,0,0,0.013020833333333332,64.01041666666666,0)" xlink:href="#al"/><use transform="matrix(0.013020833333333332,0,0,0.013020833333333332,80.01302083333331,0)" xlink:href="#Z"/></g><path fill="#333" d="M285-1169c8 382 2 780 4 1169H129v-1349h237c86 239 188 461 253 720 69-258 169-481 255-720h225V0H937c2-390-5-788 6-1169-75 255-170 488-259 729H547c-90-240-185-475-262-729" id="am"/><path fill="#333" d="M736-142h380V0H134v-142h422v-1200H267v-142h469v1342" id="an"/><g id="f"><use transform="matrix(0.010850694444444444,0,0,0.010850694444444444,0,0)" xlink:href="#am"/><use transform="matrix(0.010850694444444444,0,0,0.010850694444444444,13.335503472222221,0)" xlink:href="#T"/><use transform="matrix(0.010850694444444444,0,0,0.010850694444444444,26.671006944444443,0)" xlink:href="#R"/><use transform="matrix(0.010850694444444444,0,0,0.010850694444444444,40.006510416666664,0)" xlink:href="#af"/><use transform="matrix(0.010850694444444444,0,0,0.010850694444444444,53.342013888888886,0)" xlink:href="#an"/></g><g id="g"><use transform="matrix(0.013020833333333332,0,0,0.013020833333333332,0,0)" xlink:href="#aj"/><use transform="matrix(0.013020833333333332,0,0,0.013020833333333332,16.002604166666664,0)" xlink:href="#Y"/><use transform="matrix(0.013020833333333332,0,0,0.013020833333333332,32.00520833333333,0)" xlink:href="#ad"/><use transform="matrix(0.013020833333333332,0,0,0.013020833333333332,48.00781249999999,0)" xlink:href="#Y"/></g><path fill="#333" d="M30-248c118-7 216 8 213 122C240-48 200 0 122 0H30v-248zM63-27c89 8 146-16 146-99s-60-101-146-95v194" id="ao"/><path fill="#333" d="M100-194c63 0 86 42 84 106H49c0 40 14 67 53 68 26 1 43-12 49-29l28 8c-11 28-37 45-77 45C44 4 14-33 15-96c1-61 26-98 85-98zm52 81c6-60-76-77-97-28-3 7-6 17-6 28h103" id="ap"/><path fill="#333" d="M135-143c-3-34-86-38-87 0 15 53 115 12 119 90S17 21 10-45l28-5c4 36 97 45 98 0-10-56-113-15-118-90-4-57 82-63 122-42 12 7 21 19 24 35" id="aq"/><path fill="#333" d="M114-163C36-179 61-72 57 0H25l-1-190h30c1 12-1 29 2 39 6-27 23-49 58-41v29" id="ar"/><path fill="#333" d="M24-231v-30h32v30H24zM24 0v-190h32V0H24" id="as"/><path fill="#333" d="M141-36C126-15 110 5 73 4 37 3 15-17 15-53c-1-64 63-63 125-63 3-35-9-54-41-54-24 1-41 7-42 31l-33-3c5-37 33-52 76-52 45 0 72 20 72 64v82c-1 20 7 32 28 27v20c-31 9-61-2-59-35zM48-53c0 20 12 33 32 33 41-3 63-29 60-74-43 2-92-5-92 41" id="at"/><path fill="#333" d="M24 0v-261h32V0H24" id="au"/><path fill="#333" d="M9 0v-24l116-142H16v-24h144v24L44-24h123V0H9" id="av"/><g id="h"><use transform="matrix(0.06172839506172839,0,0,0.06172839506172839,0,0)" xlink:href="#ao"/><use transform="matrix(0.06172839506172839,0,0,0.06172839506172839,15.987654320987653,0)" xlink:href="#ap"/><use transform="matrix(0.06172839506172839,0,0,0.06172839506172839,28.333333333333332,0)" xlink:href="#aq"/><use transform="matrix(0.06172839506172839,0,0,0.06172839506172839,39.44444444444444,0)" xlink:href="#ap"/><use transform="matrix(0.06172839506172839,0,0,0.06172839506172839,51.79012345679012,0)" xlink:href="#ar"/><use transform="matrix(0.06172839506172839,0,0,0.06172839506172839,59.1358024691358,0)" xlink:href="#as"/><use transform="matrix(0.06172839506172839,0,0,0.06172839506172839,64.01234567901234,0)" xlink:href="#at"/><use transform="matrix(0.06172839506172839,0,0,0.06172839506172839,76.35802469135803,0)" xlink:href="#au"/><use transform="matrix(0.06172839506172839,0,0,0.06172839506172839,81.23456790123457,0)" xlink:href="#as"/><use transform="matrix(0.06172839506172839,0,0,0.06172839506172839,86.11111111111111,0)" xlink:href="#av"/><use transform="matrix(0.06172839506172839,0,0,0.06172839506172839,97.22222222222223,0)" xlink:href="#ap"/><use transform="matrix(0.06172839506172839,0,0,0.06172839506172839,109.56790123456791,0)" xlink:href="#aq"/></g><path fill="#333" d="M145-31C134-9 116 4 85 4 32 4 16-35 15-94c0-59 17-99 70-100 32-1 48 14 60 33 0-11-1-24 2-32h30l-1 268h-32zM93-21c41 0 51-33 51-76s-8-73-50-73c-40 0-46 35-46 75s5 74 45 74" id="aw"/><path fill="#333" d="M84 4C-5 8 30-112 23-190h32v120c0 31 7 50 39 49 72-2 45-101 50-169h31l1 190h-30c-1-10 1-25-2-33-11 22-28 36-60 37" id="ax"/><path fill="#333" d="M59-47c-2 24 18 29 38 22v24C64 9 27 4 27-40v-127H5v-23h24l9-43h21v43h35v23H59v120" id="ay"/><g id="i"><use transform="matrix(0.06172839506172839,0,0,0.06172839506172839,0,0)" xlink:href="#ar"/><use transform="matrix(0.06172839506172839,0,0,0.06172839506172839,7.345679012345679,0)" xlink:href="#ap"/><use transform="matrix(0.06172839506172839,0,0,0.06172839506172839,19.691358024691358,0)" xlink:href="#aw"/><use transform="matrix(0.06172839506172839,0,0,0.06172839506172839,32.03703703703704,0)" xlink:href="#ax"/><use transform="matrix(0.06172839506172839,0,0,0.06172839506172839,44.382716049382715,0)" xlink:href="#ap"/><use transform="matrix(0.06172839506172839,0,0,0.06172839506172839,56.72839506172839,0)" xlink:href="#aq"/><use transform="matrix(0.06172839506172839,0,0,0.06172839506172839,67.8395061728395,0)" xlink:href="#ay"/></g><path fill="#333" d="M85-194c31 0 48 13 60 33l-1-100h32l1 261h-30c-2-10 0-23-3-31C134-8 116 4 85 4 32 4 16-35 15-94c0-66 23-100 70-100zm9 24c-40 0-46 34-46 75 0 40 6 74 45 74 42 0 51-32 51-76 0-42-9-74-50-73" id="az"/><path fill="#333" d="M68-38c1 34 0 65-14 84H32c9-13 17-26 17-46H33v-38h35" id="aA"/><g id="j"><use transform="matrix(0.06172839506172839,0,0,0.06172839506172839,0,0)" xlink:href="#az"/><use transform="matrix(0.06172839506172839,0,0,0.06172839506172839,12.345679012345679,0)" xlink:href="#at"/><use transform="matrix(0.06172839506172839,0,0,0.06172839506172839,24.691358024691358,0)" xlink:href="#ay"/><use transform="matrix(0.06172839506172839,0,0,0.06172839506172839,30.864197530864196,0)" xlink:href="#at"/><use transform="matrix(0.06172839506172839,0,0,0.06172839506172839,43.20987654320987,0)" xlink:href="#aA"/></g><path fill="#333" d="M117-194c89-4 53 116 60 194h-32v-121c0-31-8-49-39-48C34-167 62-67 57 0H25l-1-190h30c1 10-1 24 2 32 11-22 29-35 61-36" id="aB"/><path fill="#333" d="M96-169c-40 0-48 33-48 73s9 75 48 75c24 0 41-14 43-38l32 2c-6 37-31 61-74 61-59 0-76-41-82-99-10-93 101-131 147-64 4 7 5 14 7 22l-32 3c-4-21-16-35-41-35" id="aC"/><g id="k"><use transform="matrix(0.06172839506172839,0,0,0.06172839506172839,0,0)" xlink:href="#as"/><use transform="matrix(0.06172839506172839,0,0,0.06172839506172839,4.876543209876543,0)" xlink:href="#aB"/><use transform="matrix(0.06172839506172839,0,0,0.06172839506172839,17.22222222222222,0)" xlink:href="#ay"/><use transform="matrix(0.06172839506172839,0,0,0.06172839506172839,23.39506172839506,0)" xlink:href="#ap"/><use transform="matrix(0.06172839506172839,0,0,0.06172839506172839,35.74074074074074,0)" xlink:href="#ar"/><use transform="matrix(0.06172839506172839,0,0,0.06172839506172839,43.08641975308642,0)" xlink:href="#at"/><use transform="matrix(0.06172839506172839,0,0,0.06172839506172839,55.432098765432094,0)" xlink:href="#aC"/><use transform="matrix(0.06172839506172839,0,0,0.06172839506172839,66.5432098765432,0)" xlink:href="#ay"/><use transform="matrix(0.06172839506172839,0,0,0.06172839506172839,72.71604938271604,0)" xlink:href="#aq"/></g><path fill="#333" d="M206 0h-36l-40-164L89 0H53L-1-190h32L70-26l43-164h34l41 164 42-164h31" id="aD"/><path fill="#333" d="M106-169C34-169 62-67 57 0H25v-261h32l-1 103c12-21 28-36 61-36 89 0 53 116 60 194h-32v-121c2-32-8-49-39-48" id="aE"/><g id="l"><use transform="matrix(0.06172839506172839,0,0,0.06172839506172839,0,0)" xlink:href="#aD"/><use transform="matrix(0.06172839506172839,0,0,0.06172839506172839,15.987654320987653,0)" xlink:href="#as"/><use transform="matrix(0.06172839506172839,0,0,0.06172839506172839,20.864197530864196,0)" xlink:href="#ay"/><use transform="matrix(0.06172839506172839,0,0,0.06172839506172839,27.037037037037035,0)" xlink:href="#aE"/></g><g id="m"><use transform="matrix(0.06172839506172839,0,0,0.06172839506172839,0,0)" xlink:href="#ay"/><use transform="matrix(0.06172839506172839,0,0,0.06172839506172839,6.172839506172839,0)" xlink:href="#aE"/><use transform="matrix(0.06172839506172839,0,0,0.06172839506172839,18.51851851851852,0)" xlink:href="#ap"/></g><path fill="#333" d="M100-194c62-1 85 37 85 99 1 63-27 99-86 99S16-35 15-95c0-66 28-99 85-99zM99-20c44 1 53-31 53-75 0-43-8-75-51-75s-53 32-53 75 10 74 51 75" id="aF"/><path fill="#333" d="M210-169c-67 3-38 105-44 169h-31v-121c0-29-5-50-35-48C34-165 62-65 56 0H25l-1-190h30c1 10-1 24 2 32 10-44 99-50 107 0 11-21 27-35 58-36 85-2 47 119 55 194h-31v-121c0-29-5-49-35-48" id="aG"/><g id="n"><use transform="matrix(0.06172839506172839,0,0,0.06172839506172839,0,0)" xlink:href="#az"/><use transform="matrix(0.06172839506172839,0,0,0.06172839506172839,12.345679012345679,0)" xlink:href="#aF"/><use transform="matrix(0.06172839506172839,0,0,0.06172839506172839,24.691358024691358,0)" xlink:href="#aG"/><use transform="matrix(0.06172839506172839,0,0,0.06172839506172839,43.148148148148145,0)" xlink:href="#at"/><use transform="matrix(0.06172839506172839,0,0,0.06172839506172839,55.49382716049382,0)" xlink:href="#as"/><use transform="matrix(0.06172839506172839,0,0,0.06172839506172839,60.37037037037037,0)" xlink:href="#aB"/></g><path fill="#333" d="M179-190L93 31C79 59 56 82 12 73V49c39 6 53-20 64-50L1-190h34L92-34l54-156h33" id="aH"/><g id="o"><use transform="matrix(0.06172839506172839,0,0,0.06172839506172839,0,0)" xlink:href="#au"/><use transform="matrix(0.06172839506172839,0,0,0.06172839506172839,4.876543209876543,0)" xlink:href="#at"/><use transform="matrix(0.06172839506172839,0,0,0.06172839506172839,17.22222222222222,0)" xlink:href="#aH"/><use transform="matrix(0.06172839506172839,0,0,0.06172839506172839,28.333333333333332,0)" xlink:href="#ap"/><use transform="matrix(0.06172839506172839,0,0,0.06172839506172839,40.67901234567901,0)" xlink:href="#ar"/></g><g id="p"><use transform="matrix(0.06172839506172839,0,0,0.06172839506172839,0,0)" xlink:href="#at"/><use transform="matrix(0.06172839506172839,0,0,0.06172839506172839,12.345679012345679,0)" xlink:href="#aB"/><use transform="matrix(0.06172839506172839,0,0,0.06172839506172839,24.691358024691358,0)" xlink:href="#az"/></g><g id="q"><use transform="matrix(0.06172839506172839,0,0,0.06172839506172839,0,0)" xlink:href="#aq"/><use transform="matrix(0.06172839506172839,0,0,0.06172839506172839,11.11111111111111,0)" xlink:href="#ap"/><use transform="matrix(0.06172839506172839,0,0,0.06172839506172839,23.45679012345679,0)" xlink:href="#ar"/><use transform="matrix(0.06172839506172839,0,0,0.06172839506172839,30.80246913580247,0)" xlink:href="#as"/><use transform="matrix(0.06172839506172839,0,0,0.06172839506172839,35.67901234567901,0)" xlink:href="#at"/><use transform="matrix(0.06172839506172839,0,0,0.06172839506172839,48.02469135802469,0)" xlink:href="#au"/><use transform="matrix(0.06172839506172839,0,0,0.06172839506172839,52.901234567901234,0)" xlink:href="#as"/><use transform="matrix(0.06172839506172839,0,0,0.06172839506172839,57.77777777777778,0)" xlink:href="#av"/><use transform="matrix(0.06172839506172839,0,0,0.06172839506172839,68.88888888888889,0)" xlink:href="#ap"/><use transform="matrix(0.06172839506172839,0,0,0.06172839506172839,81.23456790123457,0)" xlink:href="#aq"/></g><path fill="#333" d="M115-194c55 1 70 41 70 98S169 2 115 4C84 4 66-9 55-30l1 105H24l-1-265h31l2 30c10-21 28-34 59-34zm-8 174c40 0 45-34 45-75s-6-73-45-74c-42 0-51 32-51 76 0 43 10 73 51 73" id="aI"/><g id="r"><use transform="matrix(0.06172839506172839,0,0,0.06172839506172839,0,0)" xlink:href="#ar"/><use transform="matrix(0.06172839506172839,0,0,0.06172839506172839,7.345679012345679,0)" xlink:href="#ap"/><use transform="matrix(0.06172839506172839,0,0,0.06172839506172839,19.691358024691358,0)" xlink:href="#aq"/><use transform="matrix(0.06172839506172839,0,0,0.06172839506172839,30.80246913580247,0)" xlink:href="#aI"/><use transform="matrix(0.06172839506172839,0,0,0.06172839506172839,43.148148148148145,0)" xlink:href="#aF"/><use transform="matrix(0.06172839506172839,0,0,0.06172839506172839,55.49382716049382,0)" xlink:href="#aB"/><use transform="matrix(0.06172839506172839,0,0,0.06172839506172839,67.8395061728395,0)" xlink:href="#aq"/><use transform="matrix(0.06172839506172839,0,0,0.06172839506172839,78.95061728395062,0)" xlink:href="#ap"/></g><path fill="#333" d="M33 0v-38h34V0H33" id="aJ"/><g id="s"><use transform="matrix(0.06172839506172839,0,0,0.06172839506172839,0,0)" xlink:href="#az"/><use transform="matrix(0.06172839506172839,0,0,0.06172839506172839,12.345679012345679,0)" xlink:href="#at"/><use transform="matrix(0.06172839506172839,0,0,0.06172839506172839,24.691358024691358,0)" xlink:href="#ay"/><use transform="matrix(0.06172839506172839,0,0,0.06172839506172839,30.864197530864196,0)" xlink:href="#at"/><use transform="matrix(0.06172839506172839,0,0,0.06172839506172839,43.20987654320987,0)" xlink:href="#aJ"/></g><path fill="#333" d="M127-220V0H93v-220H8v-28h204v28h-85" id="aK"/><g id="t"><use transform="matrix(0.06172839506172839,0,0,0.06172839506172839,0,0)" xlink:href="#aK"/><use transform="matrix(0.06172839506172839,0,0,0.06172839506172839,12.28395061728395,0)" xlink:href="#aH"/><use transform="matrix(0.06172839506172839,0,0,0.06172839506172839,23.39506172839506,0)" xlink:href="#aI"/><use transform="matrix(0.06172839506172839,0,0,0.06172839506172839,35.74074074074074,0)" xlink:href="#as"/><use transform="matrix(0.06172839506172839,0,0,0.06172839506172839,40.617283950617285,0)" xlink:href="#aC"/><use transform="matrix(0.06172839506172839,0,0,0.06172839506172839,51.72839506172839,0)" xlink:href="#at"/><use transform="matrix(0.06172839506172839,0,0,0.06172839506172839,64.07407407407408,0)" xlink:href="#au"/><use transform="matrix(0.06172839506172839,0,0,0.06172839506172839,68.95061728395062,0)" xlink:href="#au"/><use transform="matrix(0.06172839506172839,0,0,0.06172839506172839,73.82716049382717,0)" xlink:href="#aH"/></g><g id="u"><use transform="matrix(0.06172839506172839,0,0,0.06172839506172839,0,0)" xlink:href="#as"/><use transform="matrix(0.06172839506172839,0,0,0.06172839506172839,4.876543209876543,0)" xlink:href="#aB"/><use transform="matrix(0.06172839506172839,0,0,0.06172839506172839,17.22222222222222,0)" xlink:href="#ay"/><use transform="matrix(0.06172839506172839,0,0,0.06172839506172839,23.39506172839506,0)" xlink:href="#ap"/><use transform="matrix(0.06172839506172839,0,0,0.06172839506172839,35.74074074074074,0)" xlink:href="#ar"/><use transform="matrix(0.06172839506172839,0,0,0.06172839506172839,43.08641975308642,0)" xlink:href="#at"/><use transform="matrix(0.06172839506172839,0,0,0.06172839506172839,55.432098765432094,0)" xlink:href="#aC"/><use transform="matrix(0.06172839506172839,0,0,0.06172839506172839,66.5432098765432,0)" xlink:href="#ay"/><use transform="matrix(0.06172839506172839,0,0,0.06172839506172839,72.71604938271604,0)" xlink:href="#aq"/></g><g id="v"><use transform="matrix(0.06172839506172839,0,0,0.06172839506172839,0,0)" xlink:href="#aD"/><use transform="matrix(0.06172839506172839,0,0,0.06172839506172839,15.987654320987653,0)" xlink:href="#as"/><use transform="matrix(0.06172839506172839,0,0,0.06172839506172839,20.864197530864196,0)" xlink:href="#ay"/><use transform="matrix(0.06172839506172839,0,0,0.06172839506172839,27.037037037037035,0)" xlink:href="#aE"/></g><g id="w"><use transform="matrix(0.06172839506172839,0,0,0.06172839506172839,0,0)" xlink:href="#az"/><use transform="matrix(0.06172839506172839,0,0,0.06172839506172839,12.345679012345679,0)" xlink:href="#at"/><use transform="matrix(0.06172839506172839,0,0,0.06172839506172839,24.691358024691358,0)" xlink:href="#ay"/><use transform="matrix(0.06172839506172839,0,0,0.06172839506172839,30.864197530864196,0)" xlink:href="#at"/></g><g id="x"><use transform="matrix(0.06172839506172839,0,0,0.06172839506172839,0,0)" xlink:href="#au"/><use transform="matrix(0.06172839506172839,0,0,0.06172839506172839,4.876543209876543,0)" xlink:href="#at"/><use transform="matrix(0.06172839506172839,0,0,0.06172839506172839,17.22222222222222,0)" xlink:href="#aH"/><use transform="matrix(0.06172839506172839,0,0,0.06172839506172839,28.333333333333332,0)" xlink:href="#ap"/><use transform="matrix(0.06172839506172839,0,0,0.06172839506172839,40.67901234567901,0)" xlink:href="#ar"/><use transform="matrix(0.06172839506172839,0,0,0.06172839506172839,46.79012345679012,0)" xlink:href="#aA"/></g><path fill="#333" d="M115-194c53 0 69 39 70 98 0 66-23 100-70 100C84 3 66-7 56-30L54 0H23l1-261h32v101c10-23 28-34 59-34zm-8 174c40 0 45-34 45-75 0-40-5-75-45-74-42 0-51 32-51 76 0 43 10 73 51 73" id="aL"/><g id="y"><use transform="matrix(0.06172839506172839,0,0,0.06172839506172839,0,0)" xlink:href="#aL"/><use transform="matrix(0.06172839506172839,0,0,0.06172839506172839,12.345679012345679,0)" xlink:href="#ax"/><use transform="matrix(0.06172839506172839,0,0,0.06172839506172839,24.691358024691358,0)" xlink:href="#ay"/></g><g id="z"><use transform="matrix(0.06172839506172839,0,0,0.06172839506172839,0,0)" xlink:href="#aG"/><use transform="matrix(0.06172839506172839,0,0,0.06172839506172839,18.456790123456788,0)" xlink:href="#at"/><use transform="matrix(0.06172839506172839,0,0,0.06172839506172839,30.80246913580247,0)" xlink:href="#aH"/></g><g id="A"><use transform="matrix(0.06172839506172839,0,0,0.06172839506172839,0,0)" xlink:href="#at"/><use transform="matrix(0.06172839506172839,0,0,0.06172839506172839,12.345679012345679,0)" xlink:href="#au"/><use transform="matrix(0.06172839506172839,0,0,0.06172839506172839,17.22222222222222,0)" xlink:href="#aq"/><use transform="matrix(0.06172839506172839,0,0,0.06172839506172839,28.333333333333332,0)" xlink:href="#aF"/></g><g id="B"><use transform="matrix(0.06172839506172839,0,0,0.06172839506172839,0,0)" xlink:href="#aC"/><use transform="matrix(0.06172839506172839,0,0,0.06172839506172839,11.11111111111111,0)" xlink:href="#aF"/><use transform="matrix(0.06172839506172839,0,0,0.06172839506172839,23.45679012345679,0)" xlink:href="#aG"/><use transform="matrix(0.06172839506172839,0,0,0.06172839506172839,41.91358024691358,0)" xlink:href="#aG"/><use transform="matrix(0.06172839506172839,0,0,0.06172839506172839,60.37037037037037,0)" xlink:href="#ax"/><use transform="matrix(0.06172839506172839,0,0,0.06172839506172839,72.71604938271605,0)" xlink:href="#aB"/><use transform="matrix(0.06172839506172839,0,0,0.06172839506172839,85.06172839506173,0)" xlink:href="#as"/><use transform="matrix(0.06172839506172839,0,0,0.06172839506172839,89.93827160493828,0)" xlink:href="#aC"/><use transform="matrix(0.06172839506172839,0,0,0.06172839506172839,101.0493827160494,0)" xlink:href="#at"/><use transform="matrix(0.06172839506172839,0,0,0.06172839506172839,113.39506172839508,0)" xlink:href="#ay"/><use transform="matrix(0.06172839506172839,0,0,0.06172839506172839,119.56790123456791,0)" xlink:href="#ap"/></g><g id="C"><use transform="matrix(0.06172839506172839,0,0,0.06172839506172839,0,0)" xlink:href="#aF"/><use transform="matrix(0.06172839506172839,0,0,0.06172839506172839,12.345679012345679,0)" xlink:href="#ax"/><use transform="matrix(0.06172839506172839,0,0,0.06172839506172839,24.691358024691358,0)" xlink:href="#ay"/><use transform="matrix(0.06172839506172839,0,0,0.06172839506172839,30.864197530864196,0)" xlink:href="#aq"/><use transform="matrix(0.06172839506172839,0,0,0.06172839506172839,41.9753086419753,0)" xlink:href="#as"/><use transform="matrix(0.06172839506172839,0,0,0.06172839506172839,46.85185185185185,0)" xlink:href="#az"/><use transform="matrix(0.06172839506172839,0,0,0.06172839506172839,59.197530864197525,0)" xlink:href="#ap"/></g><g id="D"><use transform="matrix(0.06172839506172839,0,0,0.06172839506172839,0,0)" xlink:href="#aD"/><use transform="matrix(0.06172839506172839,0,0,0.06172839506172839,15.987654320987653,0)" xlink:href="#aF"/><use transform="matrix(0.06172839506172839,0,0,0.06172839506172839,28.333333333333332,0)" xlink:href="#ar"/><use transform="matrix(0.06172839506172839,0,0,0.06172839506172839,35.67901234567901,0)" xlink:href="#au"/><use transform="matrix(0.06172839506172839,0,0,0.06172839506172839,40.55555555555556,0)" xlink:href="#az"/><use transform="matrix(0.06172839506172839,0,0,0.06172839506172839,52.901234567901234,0)" xlink:href="#aJ"/></g><path fill="#333" d="M101-234c-31-9-42 10-38 44h38v23H63V0H32v-167H5v-23h27c-7-52 17-82 69-68v24" id="aM"/><g id="E"><use transform="matrix(0.06172839506172839,0,0,0.06172839506172839,0,0)" xlink:href="#ao"/><use transform="matrix(0.06172839506172839,0,0,0.06172839506172839,15.987654320987653,0)" xlink:href="#ap"/><use transform="matrix(0.06172839506172839,0,0,0.06172839506172839,28.333333333333332,0)" xlink:href="#aM"/><use transform="matrix(0.06172839506172839,0,0,0.06172839506172839,34.50617283950617,0)" xlink:href="#as"/><use transform="matrix(0.06172839506172839,0,0,0.06172839506172839,39.382716049382715,0)" xlink:href="#aB"/><use transform="matrix(0.06172839506172839,0,0,0.06172839506172839,51.72839506172839,0)" xlink:href="#ap"/><use transform="matrix(0.06172839506172839,0,0,0.06172839506172839,64.07407407407408,0)" xlink:href="#aq"/></g><g id="F"><use transform="matrix(0.06172839506172839,0,0,0.06172839506172839,0,0)" xlink:href="#az"/><use transform="matrix(0.06172839506172839,0,0,0.06172839506172839,12.345679012345679,0)" xlink:href="#at"/><use transform="matrix(0.06172839506172839,0,0,0.06172839506172839,24.691358024691358,0)" xlink:href="#ay"/><use transform="matrix(0.06172839506172839,0,0,0.06172839506172839,30.864197530864196,0)" xlink:href="#at"/><use transform="matrix(0.06172839506172839,0,0,0.06172839506172839,43.20987654320987,0)" xlink:href="#aL"/><use transform="matrix(0.06172839506172839,0,0,0.06172839506172839,55.55555555555555,0)" xlink:href="#at"/><use transform="matrix(0.06172839506172839,0,0,0.06172839506172839,67.90123456790123,0)" xlink:href="#aq"/><use transform="matrix(0.06172839506172839,0,0,0.06172839506172839,79.01234567901234,0)" xlink:href="#ap"/></g><g id="G"><use transform="matrix(0.06172839506172839,0,0,0.06172839506172839,0,0)" xlink:href="#aq"/><use transform="matrix(0.06172839506172839,0,0,0.06172839506172839,11.11111111111111,0)" xlink:href="#aC"/><use transform="matrix(0.06172839506172839,0,0,0.06172839506172839,22.22222222222222,0)" xlink:href="#aE"/><use transform="matrix(0.06172839506172839,0,0,0.06172839506172839,34.5679012345679,0)" xlink:href="#ap"/><use transform="matrix(0.06172839506172839,0,0,0.06172839506172839,46.913580246913575,0)" xlink:href="#aG"/><use transform="matrix(0.06172839506172839,0,0,0.06172839506172839,65.37037037037037,0)" xlink:href="#at"/></g><g id="H"><use transform="matrix(0.06172839506172839,0,0,0.06172839506172839,0,0)" xlink:href="#at"/><use transform="matrix(0.06172839506172839,0,0,0.06172839506172839,12.345679012345679,0)" xlink:href="#aB"/><use transform="matrix(0.06172839506172839,0,0,0.06172839506172839,24.691358024691358,0)" xlink:href="#az"/></g><path fill="#333" d="M108 0H70L1-190h34L89-25l56-165h34" id="aN"/><g id="I"><use transform="matrix(0.06172839506172839,0,0,0.06172839506172839,0,0)" xlink:href="#aI"/><use transform="matrix(0.06172839506172839,0,0,0.06172839506172839,12.345679012345679,0)" xlink:href="#ar"/><use transform="matrix(0.06172839506172839,0,0,0.06172839506172839,19.691358024691358,0)" xlink:href="#aF"/><use transform="matrix(0.06172839506172839,0,0,0.06172839506172839,32.03703703703704,0)" xlink:href="#aN"/><use transform="matrix(0.06172839506172839,0,0,0.06172839506172839,43.14814814814815,0)" xlink:href="#as"/><use transform="matrix(0.06172839506172839,0,0,0.06172839506172839,48.0246913580247,0)" xlink:href="#az"/><use transform="matrix(0.06172839506172839,0,0,0.06172839506172839,60.370370370370374,0)" xlink:href="#ap"/><use transform="matrix(0.06172839506172839,0,0,0.06172839506172839,72.71604938271605,0)" xlink:href="#aq"/></g><g id="J"><use transform="matrix(0.06172839506172839,0,0,0.06172839506172839,0,0)" xlink:href="#aG"/><use transform="matrix(0.06172839506172839,0,0,0.06172839506172839,18.456790123456788,0)" xlink:href="#ap"/><use transform="matrix(0.06172839506172839,0,0,0.06172839506172839,30.80246913580247,0)" xlink:href="#at"/><use transform="matrix(0.06172839506172839,0,0,0.06172839506172839,43.148148148148145,0)" xlink:href="#aB"/><use transform="matrix(0.06172839506172839,0,0,0.06172839506172839,55.49382716049382,0)" xlink:href="#aq"/></g><g id="K"><use transform="matrix(0.06172839506172839,0,0,0.06172839506172839,0,0)" xlink:href="#aM"/><use transform="matrix(0.06172839506172839,0,0,0.06172839506172839,6.172839506172839,0)" xlink:href="#aF"/><use transform="matrix(0.06172839506172839,0,0,0.06172839506172839,18.51851851851852,0)" xlink:href="#ar"/></g><path fill="#333" d="M177-190C167-65 218 103 67 71c-23-6-38-20-44-43l32-5c15 47 100 32 89-28v-30C133-14 115 1 83 1 29 1 15-40 15-95c0-56 16-97 71-98 29-1 48 16 59 35 1-10 0-23 2-32h30zM94-22c36 0 50-32 50-73 0-42-14-75-50-75-39 0-46 34-46 75s6 73 46 73" id="aO"/><g id="L"><use transform="matrix(0.06172839506172839,0,0,0.06172839506172839,0,0)" xlink:href="#as"/><use transform="matrix(0.06172839506172839,0,0,0.06172839506172839,4.876543209876543,0)" xlink:href="#aB"/><use transform="matrix(0.06172839506172839,0,0,0.06172839506172839,17.22222222222222,0)" xlink:href="#ay"/><use transform="matrix(0.06172839506172839,0,0,0.06172839506172839,23.39506172839506,0)" xlink:href="#ap"/><use transform="matrix(0.06172839506172839,0,0,0.06172839506172839,35.74074074074074,0)" xlink:href="#ar"/><use transform="matrix(0.06172839506172839,0,0,0.06172839506172839,43.08641975308642,0)" xlink:href="#at"/><use transform="matrix(0.06172839506172839,0,0,0.06172839506172839,55.432098765432094,0)" xlink:href="#aC"/><use transform="matrix(0.06172839506172839,0,0,0.06172839506172839,66.5432098765432,0)" xlink:href="#ay"/><use transform="matrix(0.06172839506172839,0,0,0.06172839506172839,72.71604938271604,0)" xlink:href="#as"/><use transform="matrix(0.06172839506172839,0,0,0.06172839506172839,77.59259259259258,0)" xlink:href="#aB"/><use transform="matrix(0.06172839506172839,0,0,0.06172839506172839,89.93827160493827,0)" xlink:href="#aO"/></g><g id="M"><use transform="matrix(0.06172839506172839,0,0,0.06172839506172839,0,0)" xlink:href="#aD"/><use transform="matrix(0.06172839506172839,0,0,0.06172839506172839,15.987654320987653,0)" xlink:href="#as"/><use transform="matrix(0.06172839506172839,0,0,0.06172839506172839,20.864197530864196,0)" xlink:href="#ay"/><use transform="matrix(0.06172839506172839,0,0,0.06172839506172839,27.037037037037035,0)" xlink:href="#aE"/></g><g id="N"><use transform="matrix(0.06172839506172839,0,0,0.06172839506172839,0,0)" xlink:href="#ay"/><use transform="matrix(0.06172839506172839,0,0,0.06172839506172839,6.172839506172839,0)" xlink:href="#aE"/><use transform="matrix(0.06172839506172839,0,0,0.06172839506172839,18.51851851851852,0)" xlink:href="#ap"/></g><g id="O"><use transform="matrix(0.06172839506172839,0,0,0.06172839506172839,0,0)" xlink:href="#az"/><use transform="matrix(0.06172839506172839,0,0,0.06172839506172839,12.345679012345679,0)" xlink:href="#at"/><use transform="matrix(0.06172839506172839,0,0,0.06172839506172839,24.691358024691358,0)" xlink:href="#ay"/><use transform="matrix(0.06172839506172839,0,0,0.06172839506172839,30.864197530864196,0)" xlink:href="#at"/><use transform="matrix(0.06172839506172839,0,0,0.06172839506172839,43.20987654320987,0)" xlink:href="#aL"/><use transform="matrix(0.06172839506172839,0,0,0.06172839506172839,55.55555555555555,0)" xlink:href="#at"/><use transform="matrix(0.06172839506172839,0,0,0.06172839506172839,67.90123456790123,0)" xlink:href="#aq"/><use transform="matrix(0.06172839506172839,0,0,0.06172839506172839,79.01234567901234,0)" xlink:href="#ap"/><use transform="matrix(0.06172839506172839,0,0,0.06172839506172839,91.35802469135803,0)" xlink:href="#aJ"/></g></defs></g></svg>